<svg xmlns="http://www.w3.org/2000/svg" version="1.1" xmlns:xlink="http://www.w3.org/1999/xlink" xmlns:svgjs="http://svgjs.dev/svgjs" width="2000" height="1500" viewBox="0 0 2000 1500"><rect width="2000" height="1500" fill="#000000"></rect><g transform="matrix(0.44603033006244425,0,0,0.44603033006244425,552.5801673516918,250)"><svg viewBox="0 0 321 360" data-background-color="#000000" preserveAspectRatio="xMidYMid meet" height="2242" width="2000" xmlns="http://www.w3.org/2000/svg" xmlns:xlink="http://www.w3.org/1999/xlink"><g id="tight-bounds" transform="matrix(1,0,0,1,0.49999999999994316,0)"><svg viewBox="0 0 320 360" height="360" width="320"><rect width="320.00000000000017" height="360" fill="url(#1397477a-e42d-46c6-9690-c7623757afda)" mask="url(#5697830c-6fb6-4ecd-b4a2-eb0740dd8cf7)" data-fill-palette-color="tertiary"></rect><g><svg></svg></g><g><svg viewBox="0 0 320 360" height="360" width="320"><g><path d="M20.961 227.22l3.726 4.658-1.863-6.056c-0.466-2.795-3.726 0.466-1.863 1.398M25.153 224.425c1.397 2.329 2.795 4.658 2.795 6.987 0 3.261 2.795 4.658 5.123 5.589-3.261-3.726-5.124-13.974-7.918-12.576M204.017 26.929c7.918 0 15.371-0.932 23.756 0.931 20.495 5.124 37.729 15.371 49.374 29.811l32.606 52.169c1.397 13.042 4.192 27.482 3.726 43.319 3.261 0 2.795-4.658 6.521-5.59-3.726 9.316-5.59 20.961-6.521 34.469-2.329-7.453 0-18.632 0.466-24.687-3.261 5.124-5.124 1.397-5.124-0.932 0.466-3.726-1.397-3.261-2.795-4.658-5.124-4.658-8.384-9.782-12.11-17.7 2.329-6.055 2.795-14.905-4.658-19.563-2.329-1.397-5.124-3.726-6.521-7.453-1.863-5.124-5.124-11.179-4.193-19.097 0.466-2.329-6.987 5.124-11.179 1.863-18.166-12.576-36.332-27.016-58.224-39.127-11.645 0-20.029-4.192-24.221-9.316-3.726-4.658-0.932-10.713 4.658-11.179 3.261 0 6.987-0.932 9.782 0.932 0.466-1.863 2.329-4.192 4.657-4.192M157.904 16.215l0.932 0.466c4.658 0.932 6.987 7.453 12.11 5.124 0 3.261 0.466 6.521-0.466 8.85-1.397 3.726-5.59 3.726-8.85 3.726-31.208-1.863-49.374 11.179-68.471 22.358-5.124 3.261-10.713 5.59-14.906 9.782-20.029 18.632-41.921 35.866-47.045 70.335l-4.192 38.195c-0.466 4.192-5.124 8.384-4.192 13.508l3.26 22.824c-3.261-3.261-5.124 0.932-4.192 2.795 0.466 1.397 2.329 6.055 5.124 1.863 3.726 6.987 7.453 20.495 12.576 26.55 15.837 18.632 36.332 35.4 53.101 52.169 4.192-0.932 7.453-0.932 8.384-3.727 1.397 2.795-1.397 5.59-3.726 6.056 7.453 4.658 15.837 8.85 27.016 9.781 14.44 0.932 27.948 3.261 40.524 6.522 6.521-1.863 13.042-2.795 20.029-3.261 2.329 0 3.726-3.726 6.521-4.658l0.466-4.658c2.795 4.192 2.329-1.397 0.466-4.192 3.261 2.795 4.192 5.124 5.589 6.987 0-1.397 3.726-6.521 3.727-0.466l0.931-6.055c1.397-0.932 1.863 5.124 3.261 0.931 1.397-4.192 4.192-0.932 6.987-2.329-0.932 1.863-0.466 5.59 2.794 3.261l3.727-3.261c2.329 5.59 6.055 3.261 7.918 2.329 20.495-13.042 40.99-28.413 60.553-43.784l-0.466 6.055 2.329-7.453c2.329 2.329 4.192 0.466 5.124-0.931 2.795-4.658 6.521-9.316 12.577-13.508-7.453 20.029-16.303 35.866-27.482 48.908l-4.658 5.59c0 3.261-0.932 7.453-4.658 7.918-1.863 0.466-5.59-0.932-8.384 1.863-1.397 1.863 3.261 5.59-0.466 2.795-3.261-2.329-6.521 0-10.248 0.932-2.795 0.932 1.863 3.726 2.795 5.589 0.932 1.863 1.863 3.726 1.398 6.056l-5.124-5.59c-6.055 3.261-9.782 9.316-14.906 13.974-2.329 1.863-1.397 5.124-1.397 7.918-3.261 0-6.987-0.932-8.85 0.932-1.397 1.863-0.932 4.658-0.932 7.453-4.658-0.466-5.124-7.453-9.315-6.056-4.192 0.932-8.85 1.397-12.577 3.727 2.795 5.59-4.658 2.329-3.726 3.26-6.987-4.192-13.042-7.453-20.495-4.658-15.837-5.124-35.4-2.795-49.84-0.931 0-2.329 0.466-4.658-0.466-5.124-0.932 2.329-3.726 1.397-3.26 1.397-8.85-6.055-17.7-9.782-27.016-14.905-8.384 0.932-16.303-3.261-18.632-5.59-6.521-6.055-13.974-2.795-20.029-4.192-13.042-3.261-17.7-16.769-19.098-26.084-0.932-4.658-4.658-6.521-6.055-6.056-6.055-19.563-15.371-37.263-22.824-55.429-1.863-4.658-1.397-9.316-1.397-14.44 2.329 0.932 4.658 0.466 4.192-2.794-2.329-15.371-7.918-27.016-13.974-38.195 3.261-15.837 3.726-34.469 11.179-48.443 6.521-12.576 18.632-19.098 27.016-29.811 2.795-3.726 2.795-8.85 5.59-12.11 9.316-9.316 18.632-19.098 28.879-27.482 4.658-3.726 10.247 0 17.234-1.397 2.329-8.384 11.645-15.837 20.495-13.508 3.726 0.932 11.179-8.85 13.508-9.782 3.726-1.397 1.863 3.726 1.863 6.987 8.85-6.987 20.961-10.713 32.14-14.906" fill="url(#1397477a-e42d-46c6-9690-c7623757afda)" fill-rule="nonzero" stroke="none" stroke-width="1" stroke-linecap="butt" stroke-linejoin="miter" stroke-miterlimit="10" stroke-dasharray="" stroke-dashoffset="0" font-family="none" font-weight="none" font-size="none" text-anchor="none" style="mix-blend-mode: normal" data-fill-palette-color="tertiary"></path></g><g transform="matrix(1,0,0,1,77.15735561833851,90)"><svg viewBox="0 0 165.68528876332297 180" height="180" width="165.68528876332297"><g><svg viewBox="0 0 192 208.5882232391075" height="180" width="165.68528876332297"><g><svg viewBox="0 0 192 208.5882232391075" height="208.5882232391075" width="192"><g id="textblocktransform"><svg viewBox="0 0 192 208.5882232391075" height="208.5882232391075" width="192" id="textblock"><g><svg viewBox="0 0 192 145.5157894736842" height="145.5157894736842" width="192"><g transform="matrix(1,0,0,1,0,0)"><svg width="192" viewBox="0.35 -35.25 47.5 36" height="145.5157894736842" data-palette-color="url(#afbba9ac-d27d-44b5-8657-73f5a9149504)"></svg></g></svg></g><g transform="matrix(1,0,0,1,0,166.7500355368421)"><svg viewBox="0 0 192 41.83818770226538" height="41.83818770226538" width="192"><g transform="matrix(1,0,0,1,0,0)"><svg width="192" viewBox="-0.1 -39.65 231.73 50.5" height="41.83818770226538" data-palette-color="url(#81ba3394-4255-4cd5-82cf-98ef077b236e)"></svg></g></svg></g></svg></g></svg></g><g></g></svg></g></svg></g></svg></g><defs></defs><mask id="4354eaed-ff82-465c-b518-009855edf060"><g id="SvgjsG6179"><svg viewBox="0 0 320 360" height="360" width="320"><g><svg></svg></g><g><svg viewBox="0 0 320 360" height="360" width="320"><g><path d="M20.961 227.22l3.726 4.658-1.863-6.056c-0.466-2.795-3.726 0.466-1.863 1.398M25.153 224.425c1.397 2.329 2.795 4.658 2.795 6.987 0 3.261 2.795 4.658 5.123 5.589-3.261-3.726-5.124-13.974-7.918-12.576M204.017 26.929c7.918 0 15.371-0.932 23.756 0.931 20.495 5.124 37.729 15.371 49.374 29.811l32.606 52.169c1.397 13.042 4.192 27.482 3.726 43.319 3.261 0 2.795-4.658 6.521-5.59-3.726 9.316-5.59 20.961-6.521 34.469-2.329-7.453 0-18.632 0.466-24.687-3.261 5.124-5.124 1.397-5.124-0.932 0.466-3.726-1.397-3.261-2.795-4.658-5.124-4.658-8.384-9.782-12.11-17.7 2.329-6.055 2.795-14.905-4.658-19.563-2.329-1.397-5.124-3.726-6.521-7.453-1.863-5.124-5.124-11.179-4.193-19.097 0.466-2.329-6.987 5.124-11.179 1.863-18.166-12.576-36.332-27.016-58.224-39.127-11.645 0-20.029-4.192-24.221-9.316-3.726-4.658-0.932-10.713 4.658-11.179 3.261 0 6.987-0.932 9.782 0.932 0.466-1.863 2.329-4.192 4.657-4.192M157.904 16.215l0.932 0.466c4.658 0.932 6.987 7.453 12.11 5.124 0 3.261 0.466 6.521-0.466 8.85-1.397 3.726-5.59 3.726-8.85 3.726-31.208-1.863-49.374 11.179-68.471 22.358-5.124 3.261-10.713 5.59-14.906 9.782-20.029 18.632-41.921 35.866-47.045 70.335l-4.192 38.195c-0.466 4.192-5.124 8.384-4.192 13.508l3.26 22.824c-3.261-3.261-5.124 0.932-4.192 2.795 0.466 1.397 2.329 6.055 5.124 1.863 3.726 6.987 7.453 20.495 12.576 26.55 15.837 18.632 36.332 35.4 53.101 52.169 4.192-0.932 7.453-0.932 8.384-3.727 1.397 2.795-1.397 5.59-3.726 6.056 7.453 4.658 15.837 8.85 27.016 9.781 14.44 0.932 27.948 3.261 40.524 6.522 6.521-1.863 13.042-2.795 20.029-3.261 2.329 0 3.726-3.726 6.521-4.658l0.466-4.658c2.795 4.192 2.329-1.397 0.466-4.192 3.261 2.795 4.192 5.124 5.589 6.987 0-1.397 3.726-6.521 3.727-0.466l0.931-6.055c1.397-0.932 1.863 5.124 3.261 0.931 1.397-4.192 4.192-0.932 6.987-2.329-0.932 1.863-0.466 5.59 2.794 3.261l3.727-3.261c2.329 5.59 6.055 3.261 7.918 2.329 20.495-13.042 40.99-28.413 60.553-43.784l-0.466 6.055 2.329-7.453c2.329 2.329 4.192 0.466 5.124-0.931 2.795-4.658 6.521-9.316 12.577-13.508-7.453 20.029-16.303 35.866-27.482 48.908l-4.658 5.59c0 3.261-0.932 7.453-4.658 7.918-1.863 0.466-5.59-0.932-8.384 1.863-1.397 1.863 3.261 5.59-0.466 2.795-3.261-2.329-6.521 0-10.248 0.932-2.795 0.932 1.863 3.726 2.795 5.589 0.932 1.863 1.863 3.726 1.398 6.056l-5.124-5.59c-6.055 3.261-9.782 9.316-14.906 13.974-2.329 1.863-1.397 5.124-1.397 7.918-3.261 0-6.987-0.932-8.85 0.932-1.397 1.863-0.932 4.658-0.932 7.453-4.658-0.466-5.124-7.453-9.315-6.056-4.192 0.932-8.85 1.397-12.577 3.727 2.795 5.59-4.658 2.329-3.726 3.26-6.987-4.192-13.042-7.453-20.495-4.658-15.837-5.124-35.4-2.795-49.84-0.931 0-2.329 0.466-4.658-0.466-5.124-0.932 2.329-3.726 1.397-3.26 1.397-8.85-6.055-17.7-9.782-27.016-14.905-8.384 0.932-16.303-3.261-18.632-5.59-6.521-6.055-13.974-2.795-20.029-4.192-13.042-3.261-17.7-16.769-19.098-26.084-0.932-4.658-4.658-6.521-6.055-6.056-6.055-19.563-15.371-37.263-22.824-55.429-1.863-4.658-1.397-9.316-1.397-14.44 2.329 0.932 4.658 0.466 4.192-2.794-2.329-15.371-7.918-27.016-13.974-38.195 3.261-15.837 3.726-34.469 11.179-48.443 6.521-12.576 18.632-19.098 27.016-29.811 2.795-3.726 2.795-8.85 5.59-12.11 9.316-9.316 18.632-19.098 28.879-27.482 4.658-3.726 10.247 0 17.234-1.397 2.329-8.384 11.645-15.837 20.495-13.508 3.726 0.932 11.179-8.85 13.508-9.782 3.726-1.397 1.863 3.726 1.863 6.987 8.85-6.987 20.961-10.713 32.14-14.906" fill="black" fill-rule="nonzero" stroke="none" stroke-width="1" stroke-linecap="butt" stroke-linejoin="miter" stroke-miterlimit="10" stroke-dasharray="" stroke-dashoffset="0" font-family="none" font-weight="none" font-size="none" text-anchor="none" style="mix-blend-mode: normal"></path></g><g transform="matrix(1,0,0,1,77.15735561833851,90)"><svg viewBox="0 0 165.68528876332297 180" height="180" width="165.68528876332297"><g><svg viewBox="0 0 192 208.5882232391075" height="180" width="165.68528876332297"><g><svg viewBox="0 0 192 208.5882232391075" height="208.5882232391075" width="192"><g id="SvgjsG6178"><svg viewBox="0 0 192 208.5882232391075" height="208.5882232391075" width="192" id="SvgjsSvg6177"><g><svg viewBox="0 0 192 145.5157894736842" height="145.5157894736842" width="192"><g transform="matrix(1,0,0,1,0,0)"><svg width="192" viewBox="0.35 -35.25 47.5 36" height="145.5157894736842" data-palette-color="url(#afbba9ac-d27d-44b5-8657-73f5a9149504)"><path d="M11.75-35.25Q14.75-35.25 17.05-34.2 19.35-33.15 21.3-31.05L21.3-31.05 18.35-27.65Q16.8-29.05 15.33-29.75 13.85-30.45 12.2-30.45L12.2-30.45Q10.3-30.45 9.2-29.28 8.1-28.1 8.1-26.2L8.1-26.2Q8.1-24.3 9.25-23.1 10.4-21.9 13.75-20.6L13.75-20.6Q18.05-18.85 20.08-16.5 22.1-14.15 22.1-9.85L22.1-9.85Q22.1-6.9 20.75-4.48 19.4-2.05 16.88-0.65 14.35 0.75 11 0.75L11 0.75Q7.55 0.75 5-0.48 2.45-1.7 0.35-3.95L0.35-3.95 3.55-7.45Q5.35-5.85 7-5 8.65-4.15 10.6-4.15L10.6-4.15Q12.9-4.15 14.18-5.58 15.45-7 15.45-9.45L15.45-9.45Q15.45-11.6 14.33-12.98 13.2-14.35 10.15-15.5L10.15-15.5Q5.55-17.35 3.53-19.75 1.5-22.15 1.5-25.75L1.5-25.75Q1.5-28.5 2.83-30.65 4.15-32.8 6.5-34.02 8.85-35.25 11.75-35.25L11.75-35.25ZM47.85-34.55L47.85 0 39.75 0 31-28.3Q31.4-24.7 31.62-21.68 31.85-18.65 31.85-14.5L31.85-14.5 31.85 0 26.25 0 26.25-34.55 34.3-34.55 43.05-6.25Q42.75-8.05 42.47-11.35 42.2-14.65 42.2-18.05L42.2-18.05 42.2-34.55 47.85-34.55Z" opacity="1" transform="matrix(1,0,0,1,0,0)" fill="white" class="wordmark-text-0" id="SvgjsPath6176"></path></svg></g></svg></g><g transform="matrix(1,0,0,1,0,166.7500355368421)"><svg viewBox="0 0 192 41.83818770226538" height="41.83818770226538" width="192"><g transform="matrix(1,0,0,1,0,0)"><svg width="192" viewBox="-0.1 -39.65 231.73 50.5" height="41.83818770226538" data-palette-color="url(#81ba3394-4255-4cd5-82cf-98ef077b236e)"><path d="M17.9-34.55L24.15-34.55 16.15 0 8.2 0-0.1-34.55 6.35-34.55 12.25-5.6 17.9-34.55ZM26.9-26.45L33.05-26.45 33.05 0 26.9 0 26.9-26.45ZM29.95-39.65Q31.6-39.65 32.62-38.6 33.65-37.55 33.65-35.9L33.65-35.9Q33.65-34.3 32.62-33.25 31.6-32.2 29.95-32.2L29.95-32.2Q28.3-32.2 27.27-33.25 26.25-34.3 26.25-35.9L26.25-35.9Q26.25-37.55 27.27-38.6 28.3-39.65 29.95-39.65L29.95-39.65ZM56.7-29.85L58.25-25.1Q57.2-24.6 55.72-24.4 54.25-24.2 52.05-24.2L52.05-24.2Q54.15-23.2 55.17-21.53 56.2-19.85 56.2-17.4L56.2-17.4Q56.2-13.4 53.75-10.95 51.3-8.5 47.1-8.5L47.1-8.5Q45.85-8.5 44.55-8.9L44.55-8.9Q43.65-8.15 43.65-6.85L43.65-6.85Q43.65-5.85 44.2-5.35 44.75-4.85 46.25-4.85L46.25-4.85 49.05-4.85Q53.05-4.85 55.4-2.78 57.75-0.7 57.75 2.5L57.75 2.5Q57.75 6.3 54.82 8.58 51.9 10.85 46.5 10.85L46.5 10.85Q40.8 10.85 38.52 8.75 36.25 6.65 36.25 2.6L36.25 2.6 41.7 2.6Q41.7 4.75 42.7 5.65 43.7 6.55 46.55 6.55L46.55 6.55Q49.3 6.55 50.45 5.6 51.6 4.65 51.6 2.9L51.6 2.9Q51.6 1.2 50.65 0.4 49.7-0.4 47.7-0.4L47.7-0.4 45.8-0.4Q42-0.4 40.25-1.75 38.5-3.1 38.5-5.45L38.5-5.45Q38.5-6.8 39.22-8.03 39.95-9.25 41.2-10.2L41.2-10.2Q39.15-11.5 38.2-13.3 37.25-15.1 37.25-17.7L37.25-17.7Q37.25-22.05 39.85-24.58 42.45-27.1 46.85-27.1L46.85-27.1Q50.1-27.1 52.22-27.8 54.34-28.5 56.7-29.85L56.7-29.85ZM46.85-23Q45.1-23 44.2-21.75 43.3-20.5 43.3-17.8L43.3-17.8Q43.3-15.25 44.2-13.88 45.1-12.5 46.8-12.5L46.8-12.5Q48.55-12.5 49.4-13.73 50.25-14.95 50.25-17.85L50.25-17.85Q50.25-20.55 49.42-21.78 48.6-23 46.85-23L46.85-23ZM73.34-27.15Q76.19-27.15 77.84-25.1 79.49-23.05 79.49-19.6L79.49-19.6 79.49 0 73.34 0 73.34-18.9Q73.34-20.8 72.82-21.63 72.29-22.45 71.29-22.45L71.29-22.45Q69.19-22.45 67.14-18.5L67.14-18.5 67.14 0 60.99 0 60.99-26.45 66.34-26.45 66.79-23Q68.14-25.1 69.67-26.13 71.19-27.15 73.34-27.15L73.34-27.15ZM103.89-13.85Q103.89-13.4 103.74-11.3L103.74-11.3 90.09-11.3Q90.29-7.2 91.52-5.58 92.74-3.95 94.99-3.95L94.99-3.95Q96.54-3.95 97.79-4.48 99.04-5 100.49-6.15L100.49-6.15 103.04-2.65Q99.54 0.75 94.64 0.75L94.64 0.75Q89.44 0.75 86.67-2.85 83.89-6.45 83.89-13L83.89-13Q83.89-19.55 86.54-23.35 89.19-27.15 94.04-27.15L94.04-27.15Q98.69-27.15 101.29-23.78 103.89-20.4 103.89-13.85L103.89-13.85ZM97.89-15.3L97.89-15.65Q97.89-19.4 96.99-21.13 96.09-22.85 94.09-22.85L94.09-22.85Q92.24-22.85 91.27-21.18 90.29-19.5 90.09-15.3L90.09-15.3 97.89-15.3ZM108.19-26.45L114.34-26.45 114.34 0 108.19 0 108.19-26.45ZM111.24-39.65Q112.89-39.65 113.91-38.6 114.94-37.55 114.94-35.9L114.94-35.9Q114.94-34.3 113.91-33.25 112.89-32.2 111.24-32.2L111.24-32.2Q109.59-32.2 108.56-33.25 107.54-34.3 107.54-35.9L107.54-35.9Q107.54-37.55 108.56-38.6 109.59-39.65 111.24-39.65L111.24-39.65ZM127.39-27.15Q132.09-27.15 135.34-24.05L135.34-24.05 132.99-20.7Q131.59-21.7 130.34-22.2 129.09-22.7 127.79-22.7L127.79-22.7Q126.34-22.7 125.51-21.93 124.69-21.15 124.69-19.8L124.69-19.8Q124.69-18.45 125.61-17.63 126.54-16.8 129.34-15.7L129.34-15.7Q132.79-14.35 134.44-12.5 136.09-10.65 136.09-7.55L136.09-7.55Q136.09-3.7 133.39-1.48 130.69 0.75 126.54 0.75L126.54 0.75Q123.84 0.75 121.56-0.23 119.29-1.2 117.59-2.95L117.59-2.95 120.59-6.25Q123.39-3.8 126.29-3.8L126.29-3.8Q127.94-3.8 128.89-4.67 129.84-5.55 129.84-7.1L129.84-7.1Q129.84-8.25 129.44-8.97 129.04-9.7 128.04-10.33 127.04-10.95 125.04-11.7L125.04-11.7Q121.59-13.05 120.11-14.85 118.64-16.65 118.64-19.45L118.64-19.45Q118.64-22.8 121.01-24.98 123.39-27.15 127.39-27.15L127.39-27.15ZM152.28-27.15Q155.13-27.15 156.78-25.1 158.43-23.05 158.43-19.6L158.43-19.6 158.43 0 152.28 0 152.28-18.9Q152.28-20.8 151.76-21.63 151.23-22.45 150.23-22.45L150.23-22.45Q148.13-22.45 146.08-18.5L146.08-18.5 146.08 0 139.93 0 139.93-37 146.08-37.65 146.08-23.3Q147.33-25.25 148.81-26.2 150.28-27.15 152.28-27.15L152.28-27.15ZM186.03-26.45L191.73-26.45 187.18 0 179.68 0 176.73-20.85 173.83 0 166.38 0 161.73-26.45 167.68-26.45 170.38-4.6 173.73-26.45 179.98-26.45 183.18-4.6 186.03-26.45ZM212.13-6.4Q212.13-5.1 212.48-4.48 212.83-3.85 213.63-3.45L213.63-3.45 212.38 0.65Q210.33 0.4 209.1-0.45 207.88-1.3 207.28-3.05L207.28-3.05Q204.98 0.75 200.83 0.75L200.83 0.75Q197.53 0.75 195.58-1.48 193.63-3.7 193.63-7.4L193.63-7.4Q193.63-11.7 196.3-13.95 198.98-16.2 204.08-16.2L204.08-16.2 206.13-16.2 206.13-18.05Q206.13-20.55 205.25-21.58 204.38-22.6 202.43-22.6L202.43-22.6Q200.08-22.6 196.58-21.3L196.58-21.3 195.18-25.3Q197.18-26.2 199.33-26.68 201.48-27.15 203.43-27.15L203.43-27.15Q212.13-27.15 212.13-18.35L212.13-18.35 212.13-6.4ZM202.48-3.7Q204.88-3.7 206.13-7L206.13-7 206.13-12.55 204.68-12.55Q202.13-12.55 200.95-11.4 199.78-10.25 199.78-7.85L199.78-7.85Q199.78-5.8 200.48-4.75 201.18-3.7 202.48-3.7L202.48-3.7ZM229.58-27.1Q230.73-27.1 231.63-26.75L231.63-26.75 230.63-20.85Q229.63-21.1 228.78-21.1L228.78-21.1Q226.88-21.1 225.78-19.45 224.68-17.8 224.08-14.55L224.08-14.55 224.08 0 217.93 0 217.93-26.45 223.28-26.45 223.73-21.85Q225.58-27.1 229.58-27.1L229.58-27.1Z" opacity="1" transform="matrix(1,0,0,1,0,0)" fill="black" class="slogan-text-1" id="SvgjsPath6175"></path></svg></g></svg></g></svg></g></svg></g><g></g></svg></g></svg></g></svg></g><defs><mask></mask></defs></svg><rect width="320" height="360" fill="black" stroke="none" visibility="hidden"></rect></g></mask><linearGradient x1="0" x2="1" y1="0.578" y2="0.595" id="afbba9ac-d27d-44b5-8657-73f5a9149504"><stop stop-color="#6ee2f5" offset="0"></stop><stop stop-color="#6454f0" offset="1"></stop></linearGradient><rect width="320.00000000000006" height="360" fill="url(#afbba9ac-d27d-44b5-8657-73f5a9149504)" mask="url(#4354eaed-ff82-465c-b518-009855edf060)" data-fill-palette-color="primary"></rect><mask id="f4409dcb-5179-4a1b-866e-65833c258b01"><g id="SvgjsG6188"><svg viewBox="0 0 320 360" height="360" width="320"><g><svg></svg></g><g><svg viewBox="0 0 320 360" height="360" width="320"><g><path d="M20.961 227.22l3.726 4.658-1.863-6.056c-0.466-2.795-3.726 0.466-1.863 1.398M25.153 224.425c1.397 2.329 2.795 4.658 2.795 6.987 0 3.261 2.795 4.658 5.123 5.589-3.261-3.726-5.124-13.974-7.918-12.576M204.017 26.929c7.918 0 15.371-0.932 23.756 0.931 20.495 5.124 37.729 15.371 49.374 29.811l32.606 52.169c1.397 13.042 4.192 27.482 3.726 43.319 3.261 0 2.795-4.658 6.521-5.59-3.726 9.316-5.59 20.961-6.521 34.469-2.329-7.453 0-18.632 0.466-24.687-3.261 5.124-5.124 1.397-5.124-0.932 0.466-3.726-1.397-3.261-2.795-4.658-5.124-4.658-8.384-9.782-12.11-17.7 2.329-6.055 2.795-14.905-4.658-19.563-2.329-1.397-5.124-3.726-6.521-7.453-1.863-5.124-5.124-11.179-4.193-19.097 0.466-2.329-6.987 5.124-11.179 1.863-18.166-12.576-36.332-27.016-58.224-39.127-11.645 0-20.029-4.192-24.221-9.316-3.726-4.658-0.932-10.713 4.658-11.179 3.261 0 6.987-0.932 9.782 0.932 0.466-1.863 2.329-4.192 4.657-4.192M157.904 16.215l0.932 0.466c4.658 0.932 6.987 7.453 12.11 5.124 0 3.261 0.466 6.521-0.466 8.85-1.397 3.726-5.59 3.726-8.85 3.726-31.208-1.863-49.374 11.179-68.471 22.358-5.124 3.261-10.713 5.59-14.906 9.782-20.029 18.632-41.921 35.866-47.045 70.335l-4.192 38.195c-0.466 4.192-5.124 8.384-4.192 13.508l3.26 22.824c-3.261-3.261-5.124 0.932-4.192 2.795 0.466 1.397 2.329 6.055 5.124 1.863 3.726 6.987 7.453 20.495 12.576 26.55 15.837 18.632 36.332 35.4 53.101 52.169 4.192-0.932 7.453-0.932 8.384-3.727 1.397 2.795-1.397 5.59-3.726 6.056 7.453 4.658 15.837 8.85 27.016 9.781 14.44 0.932 27.948 3.261 40.524 6.522 6.521-1.863 13.042-2.795 20.029-3.261 2.329 0 3.726-3.726 6.521-4.658l0.466-4.658c2.795 4.192 2.329-1.397 0.466-4.192 3.261 2.795 4.192 5.124 5.589 6.987 0-1.397 3.726-6.521 3.727-0.466l0.931-6.055c1.397-0.932 1.863 5.124 3.261 0.931 1.397-4.192 4.192-0.932 6.987-2.329-0.932 1.863-0.466 5.59 2.794 3.261l3.727-3.261c2.329 5.59 6.055 3.261 7.918 2.329 20.495-13.042 40.99-28.413 60.553-43.784l-0.466 6.055 2.329-7.453c2.329 2.329 4.192 0.466 5.124-0.931 2.795-4.658 6.521-9.316 12.577-13.508-7.453 20.029-16.303 35.866-27.482 48.908l-4.658 5.59c0 3.261-0.932 7.453-4.658 7.918-1.863 0.466-5.59-0.932-8.384 1.863-1.397 1.863 3.261 5.59-0.466 2.795-3.261-2.329-6.521 0-10.248 0.932-2.795 0.932 1.863 3.726 2.795 5.589 0.932 1.863 1.863 3.726 1.398 6.056l-5.124-5.59c-6.055 3.261-9.782 9.316-14.906 13.974-2.329 1.863-1.397 5.124-1.397 7.918-3.261 0-6.987-0.932-8.85 0.932-1.397 1.863-0.932 4.658-0.932 7.453-4.658-0.466-5.124-7.453-9.315-6.056-4.192 0.932-8.85 1.397-12.577 3.727 2.795 5.59-4.658 2.329-3.726 3.26-6.987-4.192-13.042-7.453-20.495-4.658-15.837-5.124-35.4-2.795-49.84-0.931 0-2.329 0.466-4.658-0.466-5.124-0.932 2.329-3.726 1.397-3.26 1.397-8.85-6.055-17.7-9.782-27.016-14.905-8.384 0.932-16.303-3.261-18.632-5.59-6.521-6.055-13.974-2.795-20.029-4.192-13.042-3.261-17.7-16.769-19.098-26.084-0.932-4.658-4.658-6.521-6.055-6.056-6.055-19.563-15.371-37.263-22.824-55.429-1.863-4.658-1.397-9.316-1.397-14.44 2.329 0.932 4.658 0.466 4.192-2.794-2.329-15.371-7.918-27.016-13.974-38.195 3.261-15.837 3.726-34.469 11.179-48.443 6.521-12.576 18.632-19.098 27.016-29.811 2.795-3.726 2.795-8.85 5.59-12.11 9.316-9.316 18.632-19.098 28.879-27.482 4.658-3.726 10.247 0 17.234-1.397 2.329-8.384 11.645-15.837 20.495-13.508 3.726 0.932 11.179-8.85 13.508-9.782 3.726-1.397 1.863 3.726 1.863 6.987 8.85-6.987 20.961-10.713 32.14-14.906" fill="black" fill-rule="nonzero" stroke="none" stroke-width="1" stroke-linecap="butt" stroke-linejoin="miter" stroke-miterlimit="10" stroke-dasharray="" stroke-dashoffset="0" font-family="none" font-weight="none" font-size="none" text-anchor="none" style="mix-blend-mode: normal"></path></g><g transform="matrix(1,0,0,1,77.15735561833851,90)"><svg viewBox="0 0 165.68528876332297 180" height="180" width="165.68528876332297"><g><svg viewBox="0 0 192 208.5882232391075" height="180" width="165.68528876332297"><g><svg viewBox="0 0 192 208.5882232391075" height="208.5882232391075" width="192"><g id="SvgjsG6187"><svg viewBox="0 0 192 208.5882232391075" height="208.5882232391075" width="192" id="SvgjsSvg6186"><g><svg viewBox="0 0 192 145.5157894736842" height="145.5157894736842" width="192"><g transform="matrix(1,0,0,1,0,0)"><svg width="192" viewBox="0.35 -35.25 47.5 36" height="145.5157894736842" data-palette-color="url(#afbba9ac-d27d-44b5-8657-73f5a9149504)"></svg></g></svg></g><g transform="matrix(1,0,0,1,0,166.7500355368421)"><svg viewBox="0 0 192 41.83818770226538" height="41.83818770226538" width="192"><g transform="matrix(1,0,0,1,0,0)"><svg width="192" viewBox="-0.1 -39.65 231.73 50.5" height="41.83818770226538" data-palette-color="url(#81ba3394-4255-4cd5-82cf-98ef077b236e)"><path d="M17.9-34.55L24.15-34.55 16.15 0 8.2 0-0.1-34.55 6.35-34.55 12.25-5.6 17.9-34.55ZM26.9-26.45L33.05-26.45 33.05 0 26.9 0 26.9-26.45ZM29.95-39.65Q31.6-39.65 32.62-38.6 33.65-37.55 33.65-35.9L33.65-35.9Q33.65-34.3 32.62-33.25 31.6-32.2 29.95-32.2L29.95-32.2Q28.3-32.2 27.27-33.25 26.25-34.3 26.25-35.9L26.25-35.9Q26.25-37.55 27.27-38.6 28.3-39.65 29.95-39.65L29.95-39.65ZM56.7-29.85L58.25-25.1Q57.2-24.6 55.72-24.4 54.25-24.2 52.05-24.2L52.05-24.2Q54.15-23.2 55.17-21.53 56.2-19.85 56.2-17.4L56.2-17.4Q56.2-13.4 53.75-10.95 51.3-8.5 47.1-8.5L47.1-8.5Q45.85-8.5 44.55-8.9L44.55-8.9Q43.65-8.15 43.65-6.85L43.65-6.85Q43.65-5.85 44.2-5.35 44.75-4.85 46.25-4.85L46.25-4.85 49.05-4.85Q53.05-4.85 55.4-2.78 57.75-0.7 57.75 2.5L57.75 2.5Q57.75 6.3 54.82 8.58 51.9 10.85 46.5 10.85L46.5 10.85Q40.8 10.85 38.52 8.75 36.25 6.65 36.25 2.6L36.25 2.6 41.7 2.6Q41.7 4.75 42.7 5.65 43.7 6.55 46.55 6.55L46.55 6.55Q49.3 6.55 50.45 5.6 51.6 4.65 51.6 2.9L51.6 2.9Q51.6 1.2 50.65 0.4 49.7-0.4 47.7-0.4L47.7-0.4 45.8-0.4Q42-0.4 40.25-1.75 38.5-3.1 38.5-5.45L38.5-5.45Q38.5-6.8 39.22-8.03 39.95-9.25 41.2-10.2L41.2-10.2Q39.15-11.5 38.2-13.3 37.25-15.1 37.25-17.7L37.25-17.7Q37.25-22.05 39.85-24.58 42.45-27.1 46.85-27.1L46.85-27.1Q50.1-27.1 52.22-27.8 54.34-28.5 56.7-29.85L56.7-29.85ZM46.85-23Q45.1-23 44.2-21.75 43.3-20.5 43.3-17.8L43.3-17.8Q43.3-15.25 44.2-13.88 45.1-12.5 46.8-12.5L46.8-12.5Q48.55-12.5 49.4-13.73 50.25-14.95 50.25-17.85L50.25-17.85Q50.25-20.55 49.42-21.78 48.6-23 46.85-23L46.85-23ZM73.34-27.15Q76.19-27.15 77.84-25.1 79.49-23.05 79.49-19.6L79.49-19.6 79.49 0 73.34 0 73.34-18.9Q73.34-20.8 72.82-21.63 72.29-22.45 71.29-22.45L71.29-22.45Q69.19-22.45 67.14-18.5L67.14-18.5 67.14 0 60.99 0 60.99-26.45 66.34-26.45 66.79-23Q68.14-25.1 69.67-26.13 71.19-27.15 73.34-27.15L73.34-27.15ZM103.89-13.85Q103.89-13.4 103.74-11.3L103.74-11.3 90.09-11.3Q90.29-7.2 91.52-5.58 92.74-3.95 94.99-3.95L94.99-3.95Q96.54-3.95 97.79-4.48 99.04-5 100.49-6.15L100.49-6.15 103.04-2.65Q99.54 0.75 94.64 0.75L94.64 0.75Q89.44 0.75 86.67-2.85 83.89-6.45 83.89-13L83.89-13Q83.89-19.55 86.54-23.35 89.19-27.15 94.04-27.15L94.04-27.15Q98.69-27.15 101.29-23.78 103.89-20.4 103.89-13.85L103.89-13.85ZM97.89-15.3L97.89-15.65Q97.89-19.4 96.99-21.13 96.09-22.85 94.09-22.85L94.09-22.85Q92.24-22.85 91.27-21.18 90.29-19.5 90.09-15.3L90.09-15.3 97.89-15.3ZM108.19-26.45L114.34-26.45 114.34 0 108.19 0 108.19-26.45ZM111.24-39.65Q112.89-39.65 113.91-38.6 114.94-37.55 114.94-35.9L114.94-35.9Q114.94-34.3 113.91-33.25 112.89-32.2 111.24-32.2L111.24-32.2Q109.59-32.2 108.56-33.25 107.54-34.3 107.54-35.9L107.54-35.9Q107.54-37.55 108.56-38.6 109.59-39.65 111.24-39.65L111.24-39.65ZM127.39-27.15Q132.09-27.15 135.34-24.05L135.34-24.05 132.99-20.7Q131.59-21.7 130.34-22.2 129.09-22.7 127.79-22.7L127.79-22.7Q126.34-22.7 125.51-21.93 124.69-21.15 124.69-19.8L124.69-19.8Q124.69-18.45 125.61-17.63 126.54-16.8 129.34-15.7L129.34-15.7Q132.79-14.35 134.44-12.5 136.09-10.65 136.09-7.55L136.09-7.55Q136.09-3.7 133.39-1.48 130.69 0.75 126.54 0.75L126.54 0.75Q123.84 0.75 121.56-0.23 119.29-1.2 117.59-2.95L117.59-2.95 120.59-6.25Q123.39-3.8 126.29-3.8L126.29-3.8Q127.94-3.8 128.89-4.67 129.84-5.55 129.84-7.1L129.84-7.1Q129.84-8.25 129.44-8.97 129.04-9.7 128.04-10.33 127.04-10.95 125.04-11.7L125.04-11.7Q121.59-13.05 120.11-14.85 118.64-16.65 118.64-19.45L118.64-19.45Q118.64-22.8 121.01-24.98 123.39-27.15 127.39-27.15L127.39-27.15ZM152.28-27.15Q155.13-27.15 156.78-25.1 158.43-23.05 158.43-19.6L158.43-19.6 158.43 0 152.28 0 152.28-18.9Q152.28-20.8 151.76-21.63 151.23-22.45 150.23-22.45L150.23-22.45Q148.13-22.45 146.08-18.5L146.08-18.5 146.08 0 139.93 0 139.93-37 146.08-37.65 146.08-23.3Q147.33-25.25 148.81-26.2 150.28-27.15 152.28-27.15L152.28-27.15ZM186.03-26.45L191.73-26.45 187.18 0 179.68 0 176.73-20.85 173.83 0 166.38 0 161.73-26.45 167.68-26.45 170.38-4.6 173.73-26.45 179.98-26.45 183.18-4.6 186.03-26.45ZM212.13-6.4Q212.13-5.1 212.48-4.48 212.83-3.85 213.63-3.45L213.63-3.45 212.38 0.65Q210.33 0.4 209.1-0.45 207.88-1.3 207.28-3.05L207.28-3.05Q204.98 0.75 200.83 0.75L200.83 0.75Q197.53 0.75 195.58-1.48 193.63-3.7 193.63-7.4L193.63-7.4Q193.63-11.7 196.3-13.95 198.98-16.2 204.08-16.2L204.08-16.2 206.13-16.2 206.13-18.05Q206.13-20.55 205.25-21.58 204.38-22.6 202.43-22.6L202.43-22.6Q200.08-22.6 196.58-21.3L196.58-21.3 195.18-25.3Q197.18-26.2 199.33-26.68 201.48-27.15 203.43-27.15L203.43-27.15Q212.13-27.15 212.13-18.35L212.13-18.35 212.13-6.4ZM202.48-3.7Q204.88-3.7 206.13-7L206.13-7 206.13-12.55 204.68-12.55Q202.13-12.55 200.95-11.4 199.78-10.25 199.78-7.85L199.78-7.85Q199.78-5.8 200.48-4.75 201.18-3.7 202.48-3.7L202.48-3.7ZM229.58-27.1Q230.73-27.1 231.63-26.75L231.63-26.75 230.63-20.85Q229.63-21.1 228.78-21.1L228.78-21.1Q226.88-21.1 225.78-19.45 224.68-17.8 224.08-14.55L224.08-14.55 224.08 0 217.93 0 217.93-26.45 223.28-26.45 223.73-21.85Q225.58-27.1 229.58-27.1L229.58-27.1Z" opacity="1" transform="matrix(1,0,0,1,0,0)" fill="white" class="slogan-text-1" id="SvgjsPath6185"></path></svg></g></svg></g></svg></g></svg></g><g></g></svg></g></svg></g></svg></g><defs><mask></mask></defs><mask><g id="SvgjsG6184"><svg viewBox="0 0 320 360" height="360" width="320"><g><svg></svg></g><g><svg viewBox="0 0 320 360" height="360" width="320"><g><path d="M20.961 227.22l3.726 4.658-1.863-6.056c-0.466-2.795-3.726 0.466-1.863 1.398M25.153 224.425c1.397 2.329 2.795 4.658 2.795 6.987 0 3.261 2.795 4.658 5.123 5.589-3.261-3.726-5.124-13.974-7.918-12.576M204.017 26.929c7.918 0 15.371-0.932 23.756 0.931 20.495 5.124 37.729 15.371 49.374 29.811l32.606 52.169c1.397 13.042 4.192 27.482 3.726 43.319 3.261 0 2.795-4.658 6.521-5.59-3.726 9.316-5.59 20.961-6.521 34.469-2.329-7.453 0-18.632 0.466-24.687-3.261 5.124-5.124 1.397-5.124-0.932 0.466-3.726-1.397-3.261-2.795-4.658-5.124-4.658-8.384-9.782-12.11-17.7 2.329-6.055 2.795-14.905-4.658-19.563-2.329-1.397-5.124-3.726-6.521-7.453-1.863-5.124-5.124-11.179-4.193-19.097 0.466-2.329-6.987 5.124-11.179 1.863-18.166-12.576-36.332-27.016-58.224-39.127-11.645 0-20.029-4.192-24.221-9.316-3.726-4.658-0.932-10.713 4.658-11.179 3.261 0 6.987-0.932 9.782 0.932 0.466-1.863 2.329-4.192 4.657-4.192M157.904 16.215l0.932 0.466c4.658 0.932 6.987 7.453 12.11 5.124 0 3.261 0.466 6.521-0.466 8.85-1.397 3.726-5.59 3.726-8.85 3.726-31.208-1.863-49.374 11.179-68.471 22.358-5.124 3.261-10.713 5.59-14.906 9.782-20.029 18.632-41.921 35.866-47.045 70.335l-4.192 38.195c-0.466 4.192-5.124 8.384-4.192 13.508l3.26 22.824c-3.261-3.261-5.124 0.932-4.192 2.795 0.466 1.397 2.329 6.055 5.124 1.863 3.726 6.987 7.453 20.495 12.576 26.55 15.837 18.632 36.332 35.4 53.101 52.169 4.192-0.932 7.453-0.932 8.384-3.727 1.397 2.795-1.397 5.59-3.726 6.056 7.453 4.658 15.837 8.85 27.016 9.781 14.44 0.932 27.948 3.261 40.524 6.522 6.521-1.863 13.042-2.795 20.029-3.261 2.329 0 3.726-3.726 6.521-4.658l0.466-4.658c2.795 4.192 2.329-1.397 0.466-4.192 3.261 2.795 4.192 5.124 5.589 6.987 0-1.397 3.726-6.521 3.727-0.466l0.931-6.055c1.397-0.932 1.863 5.124 3.261 0.931 1.397-4.192 4.192-0.932 6.987-2.329-0.932 1.863-0.466 5.59 2.794 3.261l3.727-3.261c2.329 5.59 6.055 3.261 7.918 2.329 20.495-13.042 40.99-28.413 60.553-43.784l-0.466 6.055 2.329-7.453c2.329 2.329 4.192 0.466 5.124-0.931 2.795-4.658 6.521-9.316 12.577-13.508-7.453 20.029-16.303 35.866-27.482 48.908l-4.658 5.59c0 3.261-0.932 7.453-4.658 7.918-1.863 0.466-5.59-0.932-8.384 1.863-1.397 1.863 3.261 5.59-0.466 2.795-3.261-2.329-6.521 0-10.248 0.932-2.795 0.932 1.863 3.726 2.795 5.589 0.932 1.863 1.863 3.726 1.398 6.056l-5.124-5.59c-6.055 3.261-9.782 9.316-14.906 13.974-2.329 1.863-1.397 5.124-1.397 7.918-3.261 0-6.987-0.932-8.85 0.932-1.397 1.863-0.932 4.658-0.932 7.453-4.658-0.466-5.124-7.453-9.315-6.056-4.192 0.932-8.85 1.397-12.577 3.727 2.795 5.59-4.658 2.329-3.726 3.26-6.987-4.192-13.042-7.453-20.495-4.658-15.837-5.124-35.4-2.795-49.84-0.931 0-2.329 0.466-4.658-0.466-5.124-0.932 2.329-3.726 1.397-3.26 1.397-8.85-6.055-17.7-9.782-27.016-14.905-8.384 0.932-16.303-3.261-18.632-5.59-6.521-6.055-13.974-2.795-20.029-4.192-13.042-3.261-17.7-16.769-19.098-26.084-0.932-4.658-4.658-6.521-6.055-6.056-6.055-19.563-15.371-37.263-22.824-55.429-1.863-4.658-1.397-9.316-1.397-14.44 2.329 0.932 4.658 0.466 4.192-2.794-2.329-15.371-7.918-27.016-13.974-38.195 3.261-15.837 3.726-34.469 11.179-48.443 6.521-12.576 18.632-19.098 27.016-29.811 2.795-3.726 2.795-8.85 5.59-12.11 9.316-9.316 18.632-19.098 28.879-27.482 4.658-3.726 10.247 0 17.234-1.397 2.329-8.384 11.645-15.837 20.495-13.508 3.726 0.932 11.179-8.85 13.508-9.782 3.726-1.397 1.863 3.726 1.863 6.987 8.85-6.987 20.961-10.713 32.14-14.906" fill="black" fill-rule="nonzero" stroke="none" stroke-width="1" stroke-linecap="butt" stroke-linejoin="miter" stroke-miterlimit="10" stroke-dasharray="" stroke-dashoffset="0" font-family="none" font-weight="none" font-size="none" text-anchor="none" style="mix-blend-mode: normal"></path></g><g transform="matrix(1,0,0,1,77.15735561833851,90)"><svg viewBox="0 0 165.68528876332297 180" height="180" width="165.68528876332297"><g><svg viewBox="0 0 192 208.5882232391075" height="180" width="165.68528876332297"><g><svg viewBox="0 0 192 208.5882232391075" height="208.5882232391075" width="192"><g id="SvgjsG6183"><svg viewBox="0 0 192 208.5882232391075" height="208.5882232391075" width="192" id="SvgjsSvg6182"><g><svg viewBox="0 0 192 145.5157894736842" height="145.5157894736842" width="192"><g transform="matrix(1,0,0,1,0,0)"><svg width="192" viewBox="0.35 -35.25 47.5 36" height="145.5157894736842" data-palette-color="url(#afbba9ac-d27d-44b5-8657-73f5a9149504)"><path d="M11.75-35.25Q14.75-35.25 17.05-34.2 19.35-33.15 21.3-31.05L21.3-31.05 18.35-27.65Q16.8-29.05 15.33-29.75 13.85-30.45 12.2-30.45L12.2-30.45Q10.3-30.45 9.2-29.28 8.1-28.1 8.1-26.2L8.1-26.2Q8.1-24.3 9.25-23.1 10.4-21.9 13.75-20.6L13.75-20.6Q18.05-18.85 20.08-16.5 22.1-14.15 22.1-9.85L22.1-9.85Q22.1-6.9 20.75-4.48 19.4-2.05 16.88-0.65 14.35 0.75 11 0.75L11 0.75Q7.55 0.75 5-0.48 2.45-1.7 0.35-3.95L0.35-3.95 3.55-7.45Q5.35-5.85 7-5 8.65-4.15 10.6-4.15L10.6-4.15Q12.9-4.15 14.18-5.58 15.45-7 15.45-9.45L15.45-9.45Q15.45-11.6 14.33-12.98 13.2-14.35 10.15-15.5L10.15-15.5Q5.55-17.35 3.53-19.75 1.5-22.15 1.5-25.75L1.5-25.75Q1.5-28.5 2.83-30.65 4.15-32.8 6.5-34.02 8.85-35.25 11.75-35.25L11.75-35.25ZM47.85-34.55L47.85 0 39.75 0 31-28.3Q31.4-24.7 31.62-21.68 31.85-18.65 31.85-14.5L31.85-14.5 31.85 0 26.25 0 26.25-34.55 34.3-34.55 43.05-6.25Q42.75-8.05 42.47-11.35 42.2-14.65 42.2-18.05L42.2-18.05 42.2-34.55 47.85-34.55Z" opacity="1" transform="matrix(1,0,0,1,0,0)" fill="black" class="wordmark-text-0" id="SvgjsPath6181"></path></svg></g></svg></g><g transform="matrix(1,0,0,1,0,166.7500355368421)"><svg viewBox="0 0 192 41.83818770226538" height="41.83818770226538" width="192"><g transform="matrix(1,0,0,1,0,0)"><svg width="192" viewBox="-0.1 -39.65 231.73 50.5" height="41.83818770226538" data-palette-color="url(#81ba3394-4255-4cd5-82cf-98ef077b236e)"><path d="M17.9-34.55L24.15-34.55 16.15 0 8.2 0-0.1-34.55 6.35-34.55 12.25-5.6 17.9-34.55ZM26.9-26.45L33.05-26.45 33.05 0 26.9 0 26.9-26.45ZM29.95-39.65Q31.6-39.65 32.62-38.6 33.65-37.55 33.65-35.9L33.65-35.9Q33.65-34.3 32.62-33.25 31.6-32.2 29.95-32.2L29.95-32.2Q28.3-32.2 27.27-33.25 26.25-34.3 26.25-35.9L26.25-35.9Q26.25-37.55 27.27-38.6 28.3-39.65 29.95-39.65L29.95-39.65ZM56.7-29.85L58.25-25.1Q57.2-24.6 55.72-24.4 54.25-24.2 52.05-24.2L52.05-24.2Q54.15-23.2 55.17-21.53 56.2-19.85 56.2-17.4L56.2-17.4Q56.2-13.4 53.75-10.95 51.3-8.5 47.1-8.5L47.1-8.5Q45.85-8.5 44.55-8.9L44.55-8.9Q43.65-8.15 43.65-6.85L43.65-6.85Q43.65-5.85 44.2-5.35 44.75-4.85 46.25-4.85L46.25-4.85 49.05-4.85Q53.05-4.85 55.4-2.78 57.75-0.7 57.75 2.5L57.75 2.5Q57.75 6.3 54.82 8.58 51.9 10.85 46.5 10.85L46.5 10.85Q40.8 10.85 38.52 8.75 36.25 6.65 36.25 2.6L36.25 2.6 41.7 2.6Q41.7 4.75 42.7 5.65 43.7 6.55 46.55 6.55L46.55 6.55Q49.3 6.55 50.45 5.6 51.6 4.65 51.6 2.9L51.6 2.9Q51.6 1.2 50.65 0.4 49.7-0.4 47.7-0.4L47.7-0.4 45.8-0.4Q42-0.4 40.25-1.75 38.5-3.1 38.5-5.45L38.5-5.45Q38.5-6.8 39.22-8.03 39.95-9.25 41.2-10.2L41.2-10.2Q39.15-11.5 38.2-13.3 37.25-15.1 37.25-17.7L37.25-17.7Q37.25-22.05 39.85-24.58 42.45-27.1 46.85-27.1L46.85-27.1Q50.1-27.1 52.22-27.8 54.34-28.5 56.7-29.85L56.7-29.85ZM46.85-23Q45.1-23 44.2-21.75 43.3-20.5 43.3-17.8L43.3-17.8Q43.3-15.25 44.2-13.88 45.1-12.5 46.8-12.5L46.8-12.5Q48.55-12.5 49.4-13.73 50.25-14.95 50.25-17.85L50.25-17.85Q50.25-20.55 49.42-21.78 48.6-23 46.85-23L46.85-23ZM73.34-27.15Q76.19-27.15 77.84-25.1 79.49-23.05 79.49-19.6L79.49-19.6 79.49 0 73.34 0 73.34-18.9Q73.34-20.8 72.82-21.63 72.29-22.45 71.29-22.45L71.29-22.45Q69.19-22.45 67.14-18.5L67.14-18.5 67.14 0 60.99 0 60.99-26.45 66.34-26.45 66.79-23Q68.14-25.1 69.67-26.13 71.19-27.15 73.34-27.15L73.34-27.15ZM103.89-13.85Q103.89-13.4 103.74-11.3L103.74-11.3 90.09-11.3Q90.29-7.2 91.52-5.58 92.74-3.95 94.99-3.95L94.99-3.95Q96.54-3.95 97.79-4.48 99.04-5 100.49-6.15L100.49-6.15 103.04-2.65Q99.54 0.75 94.64 0.75L94.64 0.75Q89.44 0.75 86.67-2.85 83.89-6.45 83.89-13L83.89-13Q83.89-19.55 86.54-23.35 89.19-27.15 94.04-27.15L94.04-27.15Q98.69-27.15 101.29-23.78 103.89-20.4 103.89-13.85L103.89-13.85ZM97.89-15.3L97.89-15.65Q97.89-19.4 96.99-21.13 96.09-22.85 94.09-22.85L94.09-22.85Q92.24-22.85 91.27-21.18 90.29-19.5 90.09-15.3L90.09-15.3 97.89-15.3ZM108.19-26.45L114.34-26.45 114.34 0 108.19 0 108.19-26.45ZM111.24-39.65Q112.89-39.65 113.91-38.6 114.94-37.55 114.94-35.9L114.94-35.9Q114.94-34.3 113.91-33.25 112.89-32.2 111.24-32.2L111.24-32.2Q109.59-32.2 108.56-33.25 107.54-34.3 107.54-35.9L107.54-35.9Q107.54-37.55 108.56-38.6 109.59-39.65 111.24-39.65L111.24-39.65ZM127.39-27.15Q132.09-27.15 135.34-24.05L135.34-24.05 132.99-20.7Q131.59-21.7 130.34-22.2 129.09-22.7 127.79-22.7L127.79-22.7Q126.34-22.7 125.51-21.93 124.69-21.15 124.69-19.8L124.69-19.8Q124.69-18.45 125.61-17.63 126.54-16.8 129.34-15.7L129.34-15.7Q132.79-14.35 134.44-12.5 136.09-10.65 136.09-7.55L136.09-7.55Q136.09-3.7 133.39-1.48 130.69 0.75 126.54 0.75L126.54 0.75Q123.84 0.75 121.56-0.23 119.29-1.2 117.59-2.95L117.59-2.95 120.59-6.25Q123.39-3.8 126.29-3.8L126.29-3.8Q127.94-3.8 128.89-4.67 129.84-5.55 129.84-7.1L129.84-7.1Q129.84-8.25 129.44-8.97 129.04-9.7 128.04-10.33 127.04-10.95 125.04-11.7L125.04-11.7Q121.59-13.05 120.11-14.85 118.64-16.65 118.64-19.45L118.64-19.45Q118.64-22.8 121.01-24.98 123.39-27.15 127.39-27.15L127.39-27.15ZM152.28-27.15Q155.13-27.15 156.78-25.1 158.43-23.05 158.43-19.6L158.43-19.6 158.43 0 152.28 0 152.28-18.9Q152.28-20.8 151.76-21.63 151.23-22.45 150.23-22.45L150.23-22.45Q148.13-22.45 146.08-18.5L146.08-18.5 146.08 0 139.93 0 139.93-37 146.08-37.65 146.08-23.3Q147.33-25.25 148.81-26.2 150.28-27.15 152.28-27.15L152.28-27.15ZM186.03-26.45L191.73-26.45 187.18 0 179.68 0 176.73-20.85 173.83 0 166.38 0 161.73-26.45 167.68-26.45 170.38-4.6 173.73-26.45 179.98-26.45 183.18-4.6 186.03-26.45ZM212.13-6.4Q212.13-5.1 212.48-4.48 212.83-3.85 213.63-3.45L213.63-3.45 212.38 0.65Q210.33 0.4 209.1-0.45 207.88-1.3 207.28-3.05L207.28-3.05Q204.98 0.75 200.83 0.75L200.83 0.75Q197.53 0.75 195.58-1.48 193.63-3.7 193.63-7.4L193.63-7.4Q193.63-11.7 196.3-13.95 198.98-16.2 204.08-16.2L204.08-16.2 206.13-16.2 206.13-18.05Q206.13-20.55 205.25-21.58 204.38-22.6 202.43-22.6L202.43-22.6Q200.08-22.6 196.58-21.3L196.58-21.3 195.18-25.3Q197.18-26.2 199.33-26.68 201.48-27.15 203.43-27.15L203.43-27.15Q212.13-27.15 212.13-18.35L212.13-18.35 212.13-6.4ZM202.48-3.7Q204.88-3.7 206.13-7L206.13-7 206.13-12.55 204.68-12.55Q202.13-12.55 200.95-11.4 199.78-10.25 199.78-7.85L199.78-7.85Q199.78-5.8 200.48-4.75 201.18-3.7 202.48-3.7L202.48-3.7ZM229.58-27.1Q230.73-27.1 231.63-26.75L231.63-26.75 230.63-20.85Q229.63-21.1 228.78-21.1L228.78-21.1Q226.88-21.1 225.78-19.45 224.68-17.8 224.08-14.55L224.08-14.55 224.08 0 217.93 0 217.93-26.45 223.28-26.45 223.73-21.85Q225.58-27.1 229.58-27.1L229.58-27.1Z" opacity="1" transform="matrix(1,0,0,1,0,0)" fill="black" class="slogan-text-1" id="SvgjsPath6180"></path></svg></g></svg></g></svg></g></svg></g><g></g></svg></g></svg></g></svg></g><defs><mask></mask></defs></svg><rect width="320" height="360" fill="black" stroke="none" visibility="hidden"></rect></g></mask></svg><rect width="320" height="360" fill="black" stroke="none" visibility="hidden"></rect></g></mask><linearGradient x1="0" x2="1" y1="0.578" y2="0.595" id="81ba3394-4255-4cd5-82cf-98ef077b236e"><stop stop-color="#6ee2f5" offset="0"></stop><stop stop-color="#6454f0" offset="1"></stop></linearGradient><rect width="320.0000000000001" height="360" fill="url(#81ba3394-4255-4cd5-82cf-98ef077b236e)" mask="url(#f4409dcb-5179-4a1b-866e-65833c258b01)" data-fill-palette-color="secondary"></rect><mask id="5697830c-6fb6-4ecd-b4a2-eb0740dd8cf7"><g id="SvgjsG6223"><svg viewBox="0 0 320 360" height="360" width="320"><g><svg></svg></g><g><svg viewBox="0 0 320 360" height="360" width="320"><g><path d="M20.961 227.22l3.726 4.658-1.863-6.056c-0.466-2.795-3.726 0.466-1.863 1.398M25.153 224.425c1.397 2.329 2.795 4.658 2.795 6.987 0 3.261 2.795 4.658 5.123 5.589-3.261-3.726-5.124-13.974-7.918-12.576M204.017 26.929c7.918 0 15.371-0.932 23.756 0.931 20.495 5.124 37.729 15.371 49.374 29.811l32.606 52.169c1.397 13.042 4.192 27.482 3.726 43.319 3.261 0 2.795-4.658 6.521-5.59-3.726 9.316-5.59 20.961-6.521 34.469-2.329-7.453 0-18.632 0.466-24.687-3.261 5.124-5.124 1.397-5.124-0.932 0.466-3.726-1.397-3.261-2.795-4.658-5.124-4.658-8.384-9.782-12.11-17.7 2.329-6.055 2.795-14.905-4.658-19.563-2.329-1.397-5.124-3.726-6.521-7.453-1.863-5.124-5.124-11.179-4.193-19.097 0.466-2.329-6.987 5.124-11.179 1.863-18.166-12.576-36.332-27.016-58.224-39.127-11.645 0-20.029-4.192-24.221-9.316-3.726-4.658-0.932-10.713 4.658-11.179 3.261 0 6.987-0.932 9.782 0.932 0.466-1.863 2.329-4.192 4.657-4.192M157.904 16.215l0.932 0.466c4.658 0.932 6.987 7.453 12.11 5.124 0 3.261 0.466 6.521-0.466 8.85-1.397 3.726-5.59 3.726-8.85 3.726-31.208-1.863-49.374 11.179-68.471 22.358-5.124 3.261-10.713 5.59-14.906 9.782-20.029 18.632-41.921 35.866-47.045 70.335l-4.192 38.195c-0.466 4.192-5.124 8.384-4.192 13.508l3.26 22.824c-3.261-3.261-5.124 0.932-4.192 2.795 0.466 1.397 2.329 6.055 5.124 1.863 3.726 6.987 7.453 20.495 12.576 26.55 15.837 18.632 36.332 35.4 53.101 52.169 4.192-0.932 7.453-0.932 8.384-3.727 1.397 2.795-1.397 5.59-3.726 6.056 7.453 4.658 15.837 8.85 27.016 9.781 14.44 0.932 27.948 3.261 40.524 6.522 6.521-1.863 13.042-2.795 20.029-3.261 2.329 0 3.726-3.726 6.521-4.658l0.466-4.658c2.795 4.192 2.329-1.397 0.466-4.192 3.261 2.795 4.192 5.124 5.589 6.987 0-1.397 3.726-6.521 3.727-0.466l0.931-6.055c1.397-0.932 1.863 5.124 3.261 0.931 1.397-4.192 4.192-0.932 6.987-2.329-0.932 1.863-0.466 5.59 2.794 3.261l3.727-3.261c2.329 5.59 6.055 3.261 7.918 2.329 20.495-13.042 40.99-28.413 60.553-43.784l-0.466 6.055 2.329-7.453c2.329 2.329 4.192 0.466 5.124-0.931 2.795-4.658 6.521-9.316 12.577-13.508-7.453 20.029-16.303 35.866-27.482 48.908l-4.658 5.59c0 3.261-0.932 7.453-4.658 7.918-1.863 0.466-5.59-0.932-8.384 1.863-1.397 1.863 3.261 5.59-0.466 2.795-3.261-2.329-6.521 0-10.248 0.932-2.795 0.932 1.863 3.726 2.795 5.589 0.932 1.863 1.863 3.726 1.398 6.056l-5.124-5.59c-6.055 3.261-9.782 9.316-14.906 13.974-2.329 1.863-1.397 5.124-1.397 7.918-3.261 0-6.987-0.932-8.85 0.932-1.397 1.863-0.932 4.658-0.932 7.453-4.658-0.466-5.124-7.453-9.315-6.056-4.192 0.932-8.85 1.397-12.577 3.727 2.795 5.59-4.658 2.329-3.726 3.26-6.987-4.192-13.042-7.453-20.495-4.658-15.837-5.124-35.4-2.795-49.84-0.931 0-2.329 0.466-4.658-0.466-5.124-0.932 2.329-3.726 1.397-3.26 1.397-8.85-6.055-17.7-9.782-27.016-14.905-8.384 0.932-16.303-3.261-18.632-5.59-6.521-6.055-13.974-2.795-20.029-4.192-13.042-3.261-17.7-16.769-19.098-26.084-0.932-4.658-4.658-6.521-6.055-6.056-6.055-19.563-15.371-37.263-22.824-55.429-1.863-4.658-1.397-9.316-1.397-14.44 2.329 0.932 4.658 0.466 4.192-2.794-2.329-15.371-7.918-27.016-13.974-38.195 3.261-15.837 3.726-34.469 11.179-48.443 6.521-12.576 18.632-19.098 27.016-29.811 2.795-3.726 2.795-8.85 5.59-12.11 9.316-9.316 18.632-19.098 28.879-27.482 4.658-3.726 10.247 0 17.234-1.397 2.329-8.384 11.645-15.837 20.495-13.508 3.726 0.932 11.179-8.85 13.508-9.782 3.726-1.397 1.863 3.726 1.863 6.987 8.85-6.987 20.961-10.713 32.14-14.906" fill="white" fill-rule="nonzero" stroke="none" stroke-width="1" stroke-linecap="butt" stroke-linejoin="miter" stroke-miterlimit="10" stroke-dasharray="" stroke-dashoffset="0" font-family="none" font-weight="none" font-size="none" text-anchor="none" style="mix-blend-mode: normal"></path></g><g transform="matrix(1,0,0,1,77.15735561833851,90)"><svg viewBox="0 0 165.68528876332297 180" height="180" width="165.68528876332297"><g><svg viewBox="0 0 192 208.5882232391075" height="180" width="165.68528876332297"><g><svg viewBox="0 0 192 208.5882232391075" height="208.5882232391075" width="192"><g id="SvgjsG6222"><svg viewBox="0 0 192 208.5882232391075" height="208.5882232391075" width="192" id="SvgjsSvg6221"><g><svg viewBox="0 0 192 145.5157894736842" height="145.5157894736842" width="192"><g transform="matrix(1,0,0,1,0,0)"><svg width="192" viewBox="0.35 -35.25 47.5 36" height="145.5157894736842" data-palette-color="url(#afbba9ac-d27d-44b5-8657-73f5a9149504)"></svg></g></svg></g><g transform="matrix(1,0,0,1,0,166.7500355368421)"><svg viewBox="0 0 192 41.83818770226538" height="41.83818770226538" width="192"><g transform="matrix(1,0,0,1,0,0)"><svg width="192" viewBox="-0.1 -39.65 231.73 50.5" height="41.83818770226538" data-palette-color="url(#81ba3394-4255-4cd5-82cf-98ef077b236e)"></svg></g></svg></g></svg></g></svg></g><g></g></svg></g></svg></g></svg></g><defs><mask></mask></defs><mask><g id="SvgjsG6220"><svg viewBox="0 0 320 360" height="360" width="320"><g><svg></svg></g><g><svg viewBox="0 0 320 360" height="360" width="320"><g><path d="M20.961 227.22l3.726 4.658-1.863-6.056c-0.466-2.795-3.726 0.466-1.863 1.398M25.153 224.425c1.397 2.329 2.795 4.658 2.795 6.987 0 3.261 2.795 4.658 5.123 5.589-3.261-3.726-5.124-13.974-7.918-12.576M204.017 26.929c7.918 0 15.371-0.932 23.756 0.931 20.495 5.124 37.729 15.371 49.374 29.811l32.606 52.169c1.397 13.042 4.192 27.482 3.726 43.319 3.261 0 2.795-4.658 6.521-5.59-3.726 9.316-5.59 20.961-6.521 34.469-2.329-7.453 0-18.632 0.466-24.687-3.261 5.124-5.124 1.397-5.124-0.932 0.466-3.726-1.397-3.261-2.795-4.658-5.124-4.658-8.384-9.782-12.11-17.7 2.329-6.055 2.795-14.905-4.658-19.563-2.329-1.397-5.124-3.726-6.521-7.453-1.863-5.124-5.124-11.179-4.193-19.097 0.466-2.329-6.987 5.124-11.179 1.863-18.166-12.576-36.332-27.016-58.224-39.127-11.645 0-20.029-4.192-24.221-9.316-3.726-4.658-0.932-10.713 4.658-11.179 3.261 0 6.987-0.932 9.782 0.932 0.466-1.863 2.329-4.192 4.657-4.192M157.904 16.215l0.932 0.466c4.658 0.932 6.987 7.453 12.11 5.124 0 3.261 0.466 6.521-0.466 8.85-1.397 3.726-5.59 3.726-8.85 3.726-31.208-1.863-49.374 11.179-68.471 22.358-5.124 3.261-10.713 5.59-14.906 9.782-20.029 18.632-41.921 35.866-47.045 70.335l-4.192 38.195c-0.466 4.192-5.124 8.384-4.192 13.508l3.26 22.824c-3.261-3.261-5.124 0.932-4.192 2.795 0.466 1.397 2.329 6.055 5.124 1.863 3.726 6.987 7.453 20.495 12.576 26.55 15.837 18.632 36.332 35.4 53.101 52.169 4.192-0.932 7.453-0.932 8.384-3.727 1.397 2.795-1.397 5.59-3.726 6.056 7.453 4.658 15.837 8.85 27.016 9.781 14.44 0.932 27.948 3.261 40.524 6.522 6.521-1.863 13.042-2.795 20.029-3.261 2.329 0 3.726-3.726 6.521-4.658l0.466-4.658c2.795 4.192 2.329-1.397 0.466-4.192 3.261 2.795 4.192 5.124 5.589 6.987 0-1.397 3.726-6.521 3.727-0.466l0.931-6.055c1.397-0.932 1.863 5.124 3.261 0.931 1.397-4.192 4.192-0.932 6.987-2.329-0.932 1.863-0.466 5.59 2.794 3.261l3.727-3.261c2.329 5.59 6.055 3.261 7.918 2.329 20.495-13.042 40.99-28.413 60.553-43.784l-0.466 6.055 2.329-7.453c2.329 2.329 4.192 0.466 5.124-0.931 2.795-4.658 6.521-9.316 12.577-13.508-7.453 20.029-16.303 35.866-27.482 48.908l-4.658 5.59c0 3.261-0.932 7.453-4.658 7.918-1.863 0.466-5.59-0.932-8.384 1.863-1.397 1.863 3.261 5.59-0.466 2.795-3.261-2.329-6.521 0-10.248 0.932-2.795 0.932 1.863 3.726 2.795 5.589 0.932 1.863 1.863 3.726 1.398 6.056l-5.124-5.59c-6.055 3.261-9.782 9.316-14.906 13.974-2.329 1.863-1.397 5.124-1.397 7.918-3.261 0-6.987-0.932-8.85 0.932-1.397 1.863-0.932 4.658-0.932 7.453-4.658-0.466-5.124-7.453-9.315-6.056-4.192 0.932-8.85 1.397-12.577 3.727 2.795 5.59-4.658 2.329-3.726 3.26-6.987-4.192-13.042-7.453-20.495-4.658-15.837-5.124-35.4-2.795-49.84-0.931 0-2.329 0.466-4.658-0.466-5.124-0.932 2.329-3.726 1.397-3.26 1.397-8.85-6.055-17.7-9.782-27.016-14.905-8.384 0.932-16.303-3.261-18.632-5.59-6.521-6.055-13.974-2.795-20.029-4.192-13.042-3.261-17.7-16.769-19.098-26.084-0.932-4.658-4.658-6.521-6.055-6.056-6.055-19.563-15.371-37.263-22.824-55.429-1.863-4.658-1.397-9.316-1.397-14.44 2.329 0.932 4.658 0.466 4.192-2.794-2.329-15.371-7.918-27.016-13.974-38.195 3.261-15.837 3.726-34.469 11.179-48.443 6.521-12.576 18.632-19.098 27.016-29.811 2.795-3.726 2.795-8.85 5.59-12.11 9.316-9.316 18.632-19.098 28.879-27.482 4.658-3.726 10.247 0 17.234-1.397 2.329-8.384 11.645-15.837 20.495-13.508 3.726 0.932 11.179-8.85 13.508-9.782 3.726-1.397 1.863 3.726 1.863 6.987 8.85-6.987 20.961-10.713 32.14-14.906" fill="black" fill-rule="nonzero" stroke="none" stroke-width="1" stroke-linecap="butt" stroke-linejoin="miter" stroke-miterlimit="10" stroke-dasharray="" stroke-dashoffset="0" font-family="none" font-weight="none" font-size="none" text-anchor="none" style="mix-blend-mode: normal"></path></g><g transform="matrix(1,0,0,1,77.15735561833851,90)"><svg viewBox="0 0 165.68528876332297 180" height="180" width="165.68528876332297"><g><svg viewBox="0 0 192 208.5882232391075" height="180" width="165.68528876332297"><g><svg viewBox="0 0 192 208.5882232391075" height="208.5882232391075" width="192"><g id="SvgjsG6219"><svg viewBox="0 0 192 208.5882232391075" height="208.5882232391075" width="192" id="SvgjsSvg6218"><g><svg viewBox="0 0 192 145.5157894736842" height="145.5157894736842" width="192"><g transform="matrix(1,0,0,1,0,0)"><svg width="192" viewBox="0.35 -35.25 47.5 36" height="145.5157894736842" data-palette-color="url(#afbba9ac-d27d-44b5-8657-73f5a9149504)"><path d="M11.75-35.25Q14.75-35.25 17.05-34.2 19.35-33.15 21.3-31.05L21.3-31.05 18.35-27.65Q16.8-29.05 15.33-29.75 13.85-30.45 12.2-30.45L12.2-30.45Q10.3-30.45 9.2-29.28 8.1-28.1 8.1-26.2L8.1-26.2Q8.1-24.3 9.25-23.1 10.4-21.9 13.75-20.6L13.75-20.6Q18.05-18.85 20.08-16.5 22.1-14.15 22.1-9.85L22.1-9.85Q22.1-6.9 20.75-4.48 19.4-2.05 16.88-0.65 14.35 0.75 11 0.75L11 0.75Q7.55 0.75 5-0.48 2.45-1.7 0.35-3.95L0.35-3.95 3.55-7.45Q5.35-5.85 7-5 8.65-4.15 10.6-4.15L10.6-4.15Q12.9-4.15 14.18-5.58 15.45-7 15.45-9.45L15.45-9.45Q15.45-11.6 14.33-12.98 13.2-14.35 10.15-15.5L10.15-15.5Q5.55-17.35 3.53-19.75 1.5-22.15 1.5-25.75L1.5-25.75Q1.5-28.5 2.83-30.65 4.15-32.8 6.5-34.02 8.85-35.25 11.75-35.25L11.75-35.25ZM47.85-34.55L47.85 0 39.75 0 31-28.3Q31.4-24.7 31.62-21.68 31.85-18.65 31.85-14.5L31.85-14.5 31.85 0 26.25 0 26.25-34.55 34.3-34.55 43.05-6.25Q42.75-8.05 42.47-11.35 42.2-14.65 42.2-18.05L42.2-18.05 42.2-34.55 47.85-34.55Z" opacity="1" transform="matrix(1,0,0,1,0,0)" fill="black" class="wordmark-text-0" id="SvgjsPath6217"></path></svg></g></svg></g><g transform="matrix(1,0,0,1,0,166.7500355368421)"><svg viewBox="0 0 192 41.83818770226538" height="41.83818770226538" width="192"><g transform="matrix(1,0,0,1,0,0)"><svg width="192" viewBox="-0.1 -39.65 231.73 50.5" height="41.83818770226538" data-palette-color="url(#81ba3394-4255-4cd5-82cf-98ef077b236e)"><path d="M17.9-34.55L24.15-34.55 16.15 0 8.2 0-0.1-34.55 6.35-34.55 12.25-5.6 17.9-34.55ZM26.9-26.45L33.05-26.45 33.05 0 26.9 0 26.9-26.45ZM29.95-39.65Q31.6-39.65 32.62-38.6 33.65-37.55 33.65-35.9L33.65-35.9Q33.65-34.3 32.62-33.25 31.6-32.2 29.95-32.2L29.95-32.2Q28.3-32.2 27.27-33.25 26.25-34.3 26.25-35.9L26.25-35.9Q26.25-37.55 27.27-38.6 28.3-39.65 29.95-39.65L29.95-39.65ZM56.7-29.85L58.25-25.1Q57.2-24.6 55.72-24.4 54.25-24.2 52.05-24.2L52.05-24.2Q54.15-23.2 55.17-21.53 56.2-19.85 56.2-17.4L56.2-17.4Q56.2-13.4 53.75-10.95 51.3-8.5 47.1-8.5L47.1-8.5Q45.85-8.5 44.55-8.9L44.55-8.9Q43.65-8.15 43.65-6.85L43.65-6.85Q43.65-5.85 44.2-5.35 44.75-4.85 46.25-4.85L46.25-4.85 49.05-4.85Q53.05-4.85 55.4-2.78 57.75-0.7 57.75 2.5L57.75 2.5Q57.75 6.3 54.82 8.58 51.9 10.85 46.5 10.85L46.5 10.85Q40.8 10.85 38.52 8.75 36.25 6.65 36.25 2.6L36.25 2.6 41.7 2.6Q41.7 4.75 42.7 5.65 43.7 6.55 46.55 6.55L46.55 6.55Q49.3 6.55 50.45 5.6 51.6 4.65 51.6 2.9L51.6 2.9Q51.6 1.2 50.65 0.4 49.7-0.4 47.7-0.4L47.7-0.4 45.8-0.4Q42-0.4 40.25-1.75 38.5-3.1 38.5-5.45L38.5-5.45Q38.5-6.8 39.22-8.03 39.95-9.25 41.2-10.2L41.2-10.2Q39.15-11.5 38.2-13.3 37.25-15.1 37.25-17.7L37.25-17.7Q37.25-22.05 39.85-24.58 42.45-27.1 46.85-27.1L46.85-27.1Q50.1-27.1 52.22-27.8 54.34-28.5 56.7-29.85L56.7-29.85ZM46.85-23Q45.1-23 44.2-21.75 43.3-20.5 43.3-17.8L43.3-17.8Q43.3-15.25 44.2-13.88 45.1-12.5 46.8-12.5L46.8-12.5Q48.55-12.5 49.4-13.73 50.25-14.95 50.25-17.85L50.25-17.85Q50.25-20.55 49.42-21.78 48.6-23 46.85-23L46.85-23ZM73.34-27.15Q76.19-27.15 77.84-25.1 79.49-23.05 79.49-19.6L79.49-19.6 79.49 0 73.34 0 73.34-18.9Q73.34-20.8 72.82-21.63 72.29-22.45 71.29-22.45L71.29-22.45Q69.19-22.45 67.14-18.5L67.14-18.5 67.14 0 60.99 0 60.99-26.45 66.34-26.45 66.79-23Q68.14-25.1 69.67-26.13 71.19-27.15 73.34-27.15L73.34-27.15ZM103.89-13.85Q103.89-13.4 103.74-11.3L103.74-11.3 90.09-11.3Q90.29-7.2 91.52-5.58 92.74-3.95 94.99-3.95L94.99-3.95Q96.54-3.95 97.79-4.48 99.04-5 100.49-6.15L100.49-6.15 103.04-2.65Q99.54 0.75 94.64 0.75L94.64 0.75Q89.44 0.75 86.67-2.85 83.89-6.45 83.89-13L83.89-13Q83.89-19.55 86.54-23.35 89.19-27.15 94.04-27.15L94.04-27.15Q98.69-27.15 101.29-23.78 103.89-20.4 103.89-13.85L103.89-13.85ZM97.89-15.3L97.89-15.65Q97.89-19.4 96.99-21.13 96.09-22.85 94.09-22.85L94.09-22.85Q92.24-22.85 91.27-21.18 90.29-19.5 90.09-15.3L90.09-15.3 97.89-15.3ZM108.19-26.45L114.34-26.45 114.34 0 108.19 0 108.19-26.45ZM111.24-39.65Q112.89-39.65 113.91-38.6 114.94-37.55 114.94-35.9L114.94-35.9Q114.94-34.3 113.91-33.25 112.89-32.2 111.24-32.2L111.24-32.2Q109.59-32.2 108.56-33.25 107.54-34.3 107.54-35.9L107.54-35.9Q107.54-37.55 108.56-38.6 109.59-39.65 111.24-39.65L111.24-39.65ZM127.39-27.15Q132.09-27.15 135.34-24.05L135.34-24.05 132.99-20.7Q131.59-21.7 130.34-22.2 129.09-22.7 127.79-22.7L127.79-22.7Q126.34-22.7 125.51-21.93 124.69-21.15 124.69-19.8L124.69-19.8Q124.69-18.45 125.61-17.63 126.54-16.8 129.34-15.7L129.34-15.7Q132.79-14.35 134.44-12.5 136.09-10.65 136.09-7.55L136.09-7.55Q136.09-3.7 133.39-1.48 130.69 0.75 126.54 0.75L126.54 0.75Q123.84 0.75 121.56-0.23 119.29-1.2 117.59-2.95L117.59-2.95 120.59-6.25Q123.39-3.8 126.29-3.8L126.29-3.8Q127.94-3.8 128.89-4.67 129.84-5.55 129.84-7.1L129.84-7.1Q129.84-8.25 129.44-8.97 129.04-9.7 128.04-10.33 127.04-10.95 125.04-11.7L125.04-11.7Q121.59-13.05 120.11-14.85 118.64-16.65 118.64-19.45L118.64-19.45Q118.64-22.8 121.01-24.98 123.39-27.15 127.39-27.15L127.39-27.15ZM152.28-27.15Q155.13-27.15 156.78-25.1 158.43-23.05 158.43-19.6L158.43-19.6 158.43 0 152.28 0 152.28-18.9Q152.28-20.8 151.76-21.63 151.23-22.45 150.23-22.45L150.23-22.45Q148.13-22.45 146.08-18.5L146.08-18.5 146.08 0 139.93 0 139.93-37 146.08-37.65 146.08-23.3Q147.33-25.25 148.81-26.2 150.28-27.15 152.28-27.15L152.28-27.15ZM186.03-26.45L191.73-26.45 187.18 0 179.68 0 176.73-20.85 173.83 0 166.38 0 161.73-26.45 167.68-26.45 170.38-4.6 173.73-26.45 179.98-26.45 183.18-4.6 186.03-26.45ZM212.13-6.4Q212.13-5.1 212.48-4.48 212.83-3.85 213.63-3.45L213.63-3.45 212.38 0.65Q210.33 0.4 209.1-0.45 207.88-1.3 207.28-3.05L207.28-3.05Q204.98 0.75 200.83 0.75L200.83 0.75Q197.53 0.75 195.58-1.48 193.63-3.7 193.63-7.4L193.63-7.4Q193.63-11.7 196.3-13.95 198.98-16.2 204.08-16.2L204.08-16.2 206.13-16.2 206.13-18.05Q206.13-20.55 205.25-21.58 204.38-22.6 202.43-22.6L202.43-22.6Q200.08-22.6 196.58-21.3L196.58-21.3 195.18-25.3Q197.18-26.2 199.33-26.68 201.48-27.15 203.43-27.15L203.43-27.15Q212.13-27.15 212.13-18.35L212.13-18.35 212.13-6.4ZM202.48-3.7Q204.88-3.7 206.13-7L206.13-7 206.13-12.55 204.68-12.55Q202.13-12.55 200.95-11.4 199.78-10.25 199.78-7.85L199.78-7.85Q199.78-5.8 200.48-4.75 201.18-3.7 202.48-3.7L202.48-3.7ZM229.58-27.1Q230.73-27.1 231.63-26.75L231.63-26.75 230.63-20.85Q229.63-21.1 228.78-21.1L228.78-21.1Q226.88-21.1 225.78-19.45 224.68-17.8 224.08-14.55L224.08-14.55 224.08 0 217.93 0 217.93-26.45 223.28-26.45 223.73-21.85Q225.58-27.1 229.58-27.1L229.58-27.1Z" opacity="1" transform="matrix(1,0,0,1,0,0)" fill="black" class="slogan-text-1" id="SvgjsPath6216"></path></svg></g></svg></g></svg></g></svg></g><g></g></svg></g></svg></g></svg></g><defs><mask></mask></defs></svg><rect width="320" height="360" fill="black" stroke="none" visibility="hidden"></rect></g></mask><mask><g id="SvgjsG6215"><svg viewBox="0 0 320 360" height="360" width="320"><g><svg></svg></g><g><svg viewBox="0 0 320 360" height="360" width="320"><g><path d="M20.961 227.22l3.726 4.658-1.863-6.056c-0.466-2.795-3.726 0.466-1.863 1.398M25.153 224.425c1.397 2.329 2.795 4.658 2.795 6.987 0 3.261 2.795 4.658 5.123 5.589-3.261-3.726-5.124-13.974-7.918-12.576M204.017 26.929c7.918 0 15.371-0.932 23.756 0.931 20.495 5.124 37.729 15.371 49.374 29.811l32.606 52.169c1.397 13.042 4.192 27.482 3.726 43.319 3.261 0 2.795-4.658 6.521-5.59-3.726 9.316-5.59 20.961-6.521 34.469-2.329-7.453 0-18.632 0.466-24.687-3.261 5.124-5.124 1.397-5.124-0.932 0.466-3.726-1.397-3.261-2.795-4.658-5.124-4.658-8.384-9.782-12.11-17.7 2.329-6.055 2.795-14.905-4.658-19.563-2.329-1.397-5.124-3.726-6.521-7.453-1.863-5.124-5.124-11.179-4.193-19.097 0.466-2.329-6.987 5.124-11.179 1.863-18.166-12.576-36.332-27.016-58.224-39.127-11.645 0-20.029-4.192-24.221-9.316-3.726-4.658-0.932-10.713 4.658-11.179 3.261 0 6.987-0.932 9.782 0.932 0.466-1.863 2.329-4.192 4.657-4.192M157.904 16.215l0.932 0.466c4.658 0.932 6.987 7.453 12.11 5.124 0 3.261 0.466 6.521-0.466 8.85-1.397 3.726-5.59 3.726-8.85 3.726-31.208-1.863-49.374 11.179-68.471 22.358-5.124 3.261-10.713 5.59-14.906 9.782-20.029 18.632-41.921 35.866-47.045 70.335l-4.192 38.195c-0.466 4.192-5.124 8.384-4.192 13.508l3.26 22.824c-3.261-3.261-5.124 0.932-4.192 2.795 0.466 1.397 2.329 6.055 5.124 1.863 3.726 6.987 7.453 20.495 12.576 26.55 15.837 18.632 36.332 35.4 53.101 52.169 4.192-0.932 7.453-0.932 8.384-3.727 1.397 2.795-1.397 5.59-3.726 6.056 7.453 4.658 15.837 8.85 27.016 9.781 14.44 0.932 27.948 3.261 40.524 6.522 6.521-1.863 13.042-2.795 20.029-3.261 2.329 0 3.726-3.726 6.521-4.658l0.466-4.658c2.795 4.192 2.329-1.397 0.466-4.192 3.261 2.795 4.192 5.124 5.589 6.987 0-1.397 3.726-6.521 3.727-0.466l0.931-6.055c1.397-0.932 1.863 5.124 3.261 0.931 1.397-4.192 4.192-0.932 6.987-2.329-0.932 1.863-0.466 5.59 2.794 3.261l3.727-3.261c2.329 5.59 6.055 3.261 7.918 2.329 20.495-13.042 40.99-28.413 60.553-43.784l-0.466 6.055 2.329-7.453c2.329 2.329 4.192 0.466 5.124-0.931 2.795-4.658 6.521-9.316 12.577-13.508-7.453 20.029-16.303 35.866-27.482 48.908l-4.658 5.59c0 3.261-0.932 7.453-4.658 7.918-1.863 0.466-5.59-0.932-8.384 1.863-1.397 1.863 3.261 5.59-0.466 2.795-3.261-2.329-6.521 0-10.248 0.932-2.795 0.932 1.863 3.726 2.795 5.589 0.932 1.863 1.863 3.726 1.398 6.056l-5.124-5.59c-6.055 3.261-9.782 9.316-14.906 13.974-2.329 1.863-1.397 5.124-1.397 7.918-3.261 0-6.987-0.932-8.85 0.932-1.397 1.863-0.932 4.658-0.932 7.453-4.658-0.466-5.124-7.453-9.315-6.056-4.192 0.932-8.85 1.397-12.577 3.727 2.795 5.59-4.658 2.329-3.726 3.26-6.987-4.192-13.042-7.453-20.495-4.658-15.837-5.124-35.4-2.795-49.84-0.931 0-2.329 0.466-4.658-0.466-5.124-0.932 2.329-3.726 1.397-3.26 1.397-8.85-6.055-17.7-9.782-27.016-14.905-8.384 0.932-16.303-3.261-18.632-5.59-6.521-6.055-13.974-2.795-20.029-4.192-13.042-3.261-17.7-16.769-19.098-26.084-0.932-4.658-4.658-6.521-6.055-6.056-6.055-19.563-15.371-37.263-22.824-55.429-1.863-4.658-1.397-9.316-1.397-14.44 2.329 0.932 4.658 0.466 4.192-2.794-2.329-15.371-7.918-27.016-13.974-38.195 3.261-15.837 3.726-34.469 11.179-48.443 6.521-12.576 18.632-19.098 27.016-29.811 2.795-3.726 2.795-8.85 5.59-12.11 9.316-9.316 18.632-19.098 28.879-27.482 4.658-3.726 10.247 0 17.234-1.397 2.329-8.384 11.645-15.837 20.495-13.508 3.726 0.932 11.179-8.85 13.508-9.782 3.726-1.397 1.863 3.726 1.863 6.987 8.85-6.987 20.961-10.713 32.14-14.906" fill="black" fill-rule="nonzero" stroke="none" stroke-width="1" stroke-linecap="butt" stroke-linejoin="miter" stroke-miterlimit="10" stroke-dasharray="" stroke-dashoffset="0" font-family="none" font-weight="none" font-size="none" text-anchor="none" style="mix-blend-mode: normal"></path></g><g transform="matrix(1,0,0,1,77.15735561833851,90)"><svg viewBox="0 0 165.68528876332297 180" height="180" width="165.68528876332297"><g><svg viewBox="0 0 192 208.5882232391075" height="180" width="165.68528876332297"><g><svg viewBox="0 0 192 208.5882232391075" height="208.5882232391075" width="192"><g id="SvgjsG6214"><svg viewBox="0 0 192 208.5882232391075" height="208.5882232391075" width="192" id="SvgjsSvg6213"><g><svg viewBox="0 0 192 145.5157894736842" height="145.5157894736842" width="192"><g transform="matrix(1,0,0,1,0,0)"><svg width="192" viewBox="0.35 -35.25 47.5 36" height="145.5157894736842" data-palette-color="url(#afbba9ac-d27d-44b5-8657-73f5a9149504)"></svg></g></svg></g><g transform="matrix(1,0,0,1,0,166.7500355368421)"><svg viewBox="0 0 192 41.83818770226538" height="41.83818770226538" width="192"><g transform="matrix(1,0,0,1,0,0)"><svg width="192" viewBox="-0.1 -39.65 231.73 50.5" height="41.83818770226538" data-palette-color="url(#81ba3394-4255-4cd5-82cf-98ef077b236e)"><path d="M17.9-34.55L24.15-34.55 16.15 0 8.2 0-0.1-34.55 6.35-34.55 12.25-5.6 17.9-34.55ZM26.9-26.45L33.05-26.45 33.05 0 26.9 0 26.9-26.45ZM29.95-39.65Q31.6-39.65 32.62-38.6 33.65-37.55 33.65-35.9L33.65-35.9Q33.65-34.3 32.62-33.25 31.6-32.2 29.95-32.2L29.95-32.2Q28.3-32.2 27.27-33.25 26.25-34.3 26.25-35.9L26.25-35.9Q26.25-37.55 27.27-38.6 28.3-39.65 29.95-39.65L29.95-39.65ZM56.7-29.85L58.25-25.1Q57.2-24.6 55.72-24.4 54.25-24.2 52.05-24.2L52.05-24.2Q54.15-23.2 55.17-21.53 56.2-19.85 56.2-17.4L56.2-17.4Q56.2-13.4 53.75-10.95 51.3-8.5 47.1-8.5L47.1-8.5Q45.85-8.5 44.55-8.9L44.55-8.9Q43.65-8.15 43.65-6.85L43.65-6.85Q43.65-5.85 44.2-5.35 44.75-4.85 46.25-4.85L46.25-4.85 49.05-4.85Q53.05-4.85 55.4-2.78 57.75-0.7 57.75 2.5L57.75 2.5Q57.75 6.3 54.82 8.58 51.9 10.85 46.5 10.85L46.5 10.85Q40.8 10.85 38.52 8.75 36.25 6.65 36.25 2.6L36.25 2.6 41.7 2.6Q41.7 4.75 42.7 5.65 43.7 6.55 46.55 6.55L46.55 6.55Q49.3 6.55 50.45 5.6 51.6 4.65 51.6 2.9L51.6 2.9Q51.6 1.2 50.65 0.4 49.7-0.4 47.7-0.4L47.7-0.4 45.8-0.4Q42-0.4 40.25-1.75 38.5-3.1 38.5-5.45L38.5-5.45Q38.5-6.8 39.22-8.03 39.95-9.25 41.2-10.2L41.2-10.2Q39.15-11.5 38.2-13.3 37.25-15.1 37.25-17.7L37.25-17.7Q37.25-22.05 39.85-24.58 42.45-27.1 46.85-27.1L46.85-27.1Q50.1-27.1 52.22-27.8 54.34-28.5 56.7-29.85L56.7-29.85ZM46.85-23Q45.1-23 44.2-21.75 43.3-20.5 43.3-17.8L43.3-17.8Q43.3-15.25 44.2-13.88 45.1-12.5 46.8-12.5L46.8-12.5Q48.55-12.5 49.4-13.73 50.25-14.95 50.25-17.85L50.25-17.85Q50.25-20.55 49.42-21.78 48.6-23 46.85-23L46.85-23ZM73.34-27.15Q76.19-27.15 77.84-25.1 79.49-23.05 79.49-19.6L79.49-19.6 79.49 0 73.34 0 73.34-18.9Q73.34-20.8 72.82-21.63 72.29-22.45 71.29-22.45L71.29-22.45Q69.19-22.45 67.14-18.5L67.14-18.5 67.14 0 60.99 0 60.99-26.45 66.34-26.45 66.79-23Q68.14-25.1 69.67-26.13 71.19-27.15 73.34-27.15L73.34-27.15ZM103.89-13.85Q103.89-13.4 103.74-11.3L103.74-11.3 90.09-11.3Q90.29-7.2 91.52-5.58 92.74-3.95 94.99-3.95L94.99-3.95Q96.54-3.95 97.79-4.48 99.04-5 100.49-6.15L100.49-6.15 103.04-2.65Q99.54 0.75 94.64 0.75L94.64 0.75Q89.44 0.75 86.67-2.85 83.89-6.45 83.89-13L83.89-13Q83.89-19.55 86.54-23.35 89.19-27.15 94.04-27.15L94.04-27.15Q98.69-27.15 101.29-23.78 103.89-20.4 103.89-13.85L103.89-13.85ZM97.89-15.3L97.89-15.65Q97.89-19.4 96.99-21.13 96.09-22.85 94.09-22.85L94.09-22.85Q92.24-22.85 91.27-21.18 90.29-19.5 90.09-15.3L90.09-15.3 97.89-15.3ZM108.19-26.45L114.34-26.45 114.34 0 108.19 0 108.19-26.45ZM111.24-39.65Q112.89-39.65 113.91-38.6 114.94-37.55 114.94-35.9L114.94-35.9Q114.94-34.3 113.91-33.25 112.89-32.2 111.24-32.2L111.24-32.2Q109.59-32.2 108.56-33.25 107.54-34.3 107.54-35.9L107.54-35.9Q107.54-37.55 108.56-38.6 109.59-39.65 111.24-39.65L111.24-39.65ZM127.39-27.15Q132.09-27.15 135.34-24.05L135.34-24.05 132.99-20.7Q131.59-21.7 130.34-22.2 129.09-22.7 127.79-22.7L127.79-22.7Q126.34-22.7 125.51-21.93 124.69-21.15 124.69-19.8L124.69-19.8Q124.69-18.45 125.61-17.63 126.54-16.8 129.34-15.7L129.34-15.7Q132.79-14.35 134.44-12.5 136.09-10.65 136.09-7.55L136.09-7.55Q136.09-3.7 133.39-1.48 130.69 0.75 126.54 0.75L126.54 0.75Q123.84 0.75 121.56-0.23 119.29-1.2 117.59-2.95L117.59-2.95 120.59-6.25Q123.39-3.8 126.29-3.8L126.29-3.8Q127.94-3.8 128.89-4.67 129.84-5.55 129.84-7.1L129.84-7.1Q129.84-8.25 129.44-8.97 129.04-9.7 128.04-10.33 127.04-10.95 125.04-11.7L125.04-11.7Q121.59-13.05 120.11-14.85 118.64-16.65 118.64-19.45L118.64-19.45Q118.64-22.8 121.01-24.98 123.39-27.15 127.39-27.15L127.39-27.15ZM152.28-27.15Q155.13-27.15 156.78-25.1 158.43-23.05 158.43-19.6L158.43-19.6 158.43 0 152.28 0 152.28-18.9Q152.28-20.8 151.76-21.63 151.23-22.45 150.23-22.45L150.23-22.45Q148.13-22.45 146.08-18.5L146.08-18.5 146.08 0 139.93 0 139.93-37 146.08-37.65 146.08-23.3Q147.33-25.25 148.81-26.2 150.28-27.15 152.28-27.15L152.28-27.15ZM186.03-26.45L191.73-26.45 187.18 0 179.68 0 176.73-20.85 173.83 0 166.38 0 161.73-26.45 167.68-26.45 170.38-4.6 173.73-26.45 179.98-26.45 183.18-4.6 186.03-26.45ZM212.13-6.4Q212.13-5.1 212.48-4.48 212.83-3.85 213.63-3.45L213.63-3.45 212.38 0.65Q210.33 0.4 209.1-0.45 207.88-1.3 207.28-3.05L207.28-3.05Q204.98 0.75 200.83 0.75L200.83 0.75Q197.53 0.75 195.58-1.48 193.63-3.7 193.63-7.4L193.63-7.4Q193.63-11.7 196.3-13.95 198.98-16.2 204.08-16.2L204.08-16.2 206.13-16.2 206.13-18.05Q206.13-20.55 205.25-21.58 204.38-22.6 202.43-22.6L202.43-22.6Q200.08-22.6 196.58-21.3L196.58-21.3 195.18-25.3Q197.18-26.2 199.33-26.68 201.48-27.15 203.43-27.15L203.43-27.15Q212.13-27.15 212.13-18.35L212.13-18.35 212.13-6.4ZM202.48-3.7Q204.88-3.7 206.13-7L206.13-7 206.13-12.55 204.68-12.55Q202.13-12.55 200.95-11.4 199.78-10.25 199.78-7.85L199.78-7.85Q199.78-5.8 200.48-4.75 201.18-3.7 202.48-3.7L202.48-3.7ZM229.58-27.1Q230.73-27.1 231.63-26.75L231.63-26.75 230.63-20.85Q229.63-21.1 228.78-21.1L228.78-21.1Q226.88-21.1 225.78-19.45 224.68-17.8 224.08-14.55L224.08-14.55 224.08 0 217.93 0 217.93-26.45 223.28-26.45 223.73-21.85Q225.58-27.1 229.58-27.1L229.58-27.1Z" opacity="1" transform="matrix(1,0,0,1,0,0)" fill="black" class="slogan-text-1" id="SvgjsPath6212"></path></svg></g></svg></g></svg></g></svg></g><g></g></svg></g></svg></g></svg></g><defs><mask></mask></defs><mask><g id="SvgjsG6211"><svg viewBox="0 0 320 360" height="360" width="320"><g><svg></svg></g><g><svg viewBox="0 0 320 360" height="360" width="320"><g><path d="M20.961 227.22l3.726 4.658-1.863-6.056c-0.466-2.795-3.726 0.466-1.863 1.398M25.153 224.425c1.397 2.329 2.795 4.658 2.795 6.987 0 3.261 2.795 4.658 5.123 5.589-3.261-3.726-5.124-13.974-7.918-12.576M204.017 26.929c7.918 0 15.371-0.932 23.756 0.931 20.495 5.124 37.729 15.371 49.374 29.811l32.606 52.169c1.397 13.042 4.192 27.482 3.726 43.319 3.261 0 2.795-4.658 6.521-5.59-3.726 9.316-5.59 20.961-6.521 34.469-2.329-7.453 0-18.632 0.466-24.687-3.261 5.124-5.124 1.397-5.124-0.932 0.466-3.726-1.397-3.261-2.795-4.658-5.124-4.658-8.384-9.782-12.11-17.7 2.329-6.055 2.795-14.905-4.658-19.563-2.329-1.397-5.124-3.726-6.521-7.453-1.863-5.124-5.124-11.179-4.193-19.097 0.466-2.329-6.987 5.124-11.179 1.863-18.166-12.576-36.332-27.016-58.224-39.127-11.645 0-20.029-4.192-24.221-9.316-3.726-4.658-0.932-10.713 4.658-11.179 3.261 0 6.987-0.932 9.782 0.932 0.466-1.863 2.329-4.192 4.657-4.192M157.904 16.215l0.932 0.466c4.658 0.932 6.987 7.453 12.11 5.124 0 3.261 0.466 6.521-0.466 8.85-1.397 3.726-5.59 3.726-8.85 3.726-31.208-1.863-49.374 11.179-68.471 22.358-5.124 3.261-10.713 5.59-14.906 9.782-20.029 18.632-41.921 35.866-47.045 70.335l-4.192 38.195c-0.466 4.192-5.124 8.384-4.192 13.508l3.26 22.824c-3.261-3.261-5.124 0.932-4.192 2.795 0.466 1.397 2.329 6.055 5.124 1.863 3.726 6.987 7.453 20.495 12.576 26.55 15.837 18.632 36.332 35.4 53.101 52.169 4.192-0.932 7.453-0.932 8.384-3.727 1.397 2.795-1.397 5.59-3.726 6.056 7.453 4.658 15.837 8.85 27.016 9.781 14.44 0.932 27.948 3.261 40.524 6.522 6.521-1.863 13.042-2.795 20.029-3.261 2.329 0 3.726-3.726 6.521-4.658l0.466-4.658c2.795 4.192 2.329-1.397 0.466-4.192 3.261 2.795 4.192 5.124 5.589 6.987 0-1.397 3.726-6.521 3.727-0.466l0.931-6.055c1.397-0.932 1.863 5.124 3.261 0.931 1.397-4.192 4.192-0.932 6.987-2.329-0.932 1.863-0.466 5.59 2.794 3.261l3.727-3.261c2.329 5.59 6.055 3.261 7.918 2.329 20.495-13.042 40.99-28.413 60.553-43.784l-0.466 6.055 2.329-7.453c2.329 2.329 4.192 0.466 5.124-0.931 2.795-4.658 6.521-9.316 12.577-13.508-7.453 20.029-16.303 35.866-27.482 48.908l-4.658 5.59c0 3.261-0.932 7.453-4.658 7.918-1.863 0.466-5.59-0.932-8.384 1.863-1.397 1.863 3.261 5.59-0.466 2.795-3.261-2.329-6.521 0-10.248 0.932-2.795 0.932 1.863 3.726 2.795 5.589 0.932 1.863 1.863 3.726 1.398 6.056l-5.124-5.59c-6.055 3.261-9.782 9.316-14.906 13.974-2.329 1.863-1.397 5.124-1.397 7.918-3.261 0-6.987-0.932-8.85 0.932-1.397 1.863-0.932 4.658-0.932 7.453-4.658-0.466-5.124-7.453-9.315-6.056-4.192 0.932-8.85 1.397-12.577 3.727 2.795 5.59-4.658 2.329-3.726 3.26-6.987-4.192-13.042-7.453-20.495-4.658-15.837-5.124-35.4-2.795-49.84-0.931 0-2.329 0.466-4.658-0.466-5.124-0.932 2.329-3.726 1.397-3.26 1.397-8.85-6.055-17.7-9.782-27.016-14.905-8.384 0.932-16.303-3.261-18.632-5.59-6.521-6.055-13.974-2.795-20.029-4.192-13.042-3.261-17.7-16.769-19.098-26.084-0.932-4.658-4.658-6.521-6.055-6.056-6.055-19.563-15.371-37.263-22.824-55.429-1.863-4.658-1.397-9.316-1.397-14.44 2.329 0.932 4.658 0.466 4.192-2.794-2.329-15.371-7.918-27.016-13.974-38.195 3.261-15.837 3.726-34.469 11.179-48.443 6.521-12.576 18.632-19.098 27.016-29.811 2.795-3.726 2.795-8.85 5.59-12.11 9.316-9.316 18.632-19.098 28.879-27.482 4.658-3.726 10.247 0 17.234-1.397 2.329-8.384 11.645-15.837 20.495-13.508 3.726 0.932 11.179-8.85 13.508-9.782 3.726-1.397 1.863 3.726 1.863 6.987 8.85-6.987 20.961-10.713 32.14-14.906" fill="black" fill-rule="nonzero" stroke="none" stroke-width="1" stroke-linecap="butt" stroke-linejoin="miter" stroke-miterlimit="10" stroke-dasharray="" stroke-dashoffset="0" font-family="none" font-weight="none" font-size="none" text-anchor="none" style="mix-blend-mode: normal"></path></g><g transform="matrix(1,0,0,1,77.15735561833851,90)"><svg viewBox="0 0 165.68528876332297 180" height="180" width="165.68528876332297"><g><svg viewBox="0 0 192 208.5882232391075" height="180" width="165.68528876332297"><g><svg viewBox="0 0 192 208.5882232391075" height="208.5882232391075" width="192"><g id="SvgjsG6210"><svg viewBox="0 0 192 208.5882232391075" height="208.5882232391075" width="192" id="SvgjsSvg6209"><g><svg viewBox="0 0 192 145.5157894736842" height="145.5157894736842" width="192"><g transform="matrix(1,0,0,1,0,0)"><svg width="192" viewBox="0.35 -35.25 47.5 36" height="145.5157894736842" data-palette-color="url(#afbba9ac-d27d-44b5-8657-73f5a9149504)"><path d="M11.75-35.25Q14.75-35.25 17.05-34.2 19.35-33.15 21.3-31.05L21.3-31.05 18.35-27.65Q16.8-29.05 15.33-29.75 13.85-30.45 12.2-30.45L12.2-30.45Q10.3-30.45 9.2-29.28 8.1-28.1 8.1-26.2L8.1-26.2Q8.1-24.3 9.25-23.1 10.4-21.9 13.75-20.6L13.75-20.6Q18.05-18.85 20.08-16.5 22.1-14.15 22.1-9.85L22.1-9.85Q22.1-6.9 20.75-4.48 19.4-2.05 16.88-0.65 14.35 0.75 11 0.75L11 0.75Q7.55 0.75 5-0.48 2.45-1.7 0.35-3.95L0.35-3.95 3.55-7.45Q5.35-5.85 7-5 8.65-4.15 10.6-4.15L10.6-4.15Q12.9-4.15 14.18-5.58 15.45-7 15.45-9.45L15.45-9.45Q15.45-11.6 14.33-12.98 13.2-14.35 10.15-15.5L10.15-15.5Q5.55-17.35 3.53-19.75 1.5-22.15 1.5-25.75L1.5-25.75Q1.5-28.5 2.83-30.65 4.15-32.8 6.5-34.02 8.85-35.25 11.75-35.25L11.75-35.25ZM47.85-34.55L47.85 0 39.75 0 31-28.3Q31.4-24.7 31.62-21.68 31.85-18.65 31.85-14.5L31.85-14.5 31.85 0 26.25 0 26.25-34.55 34.3-34.55 43.05-6.25Q42.75-8.05 42.47-11.35 42.2-14.65 42.2-18.05L42.2-18.05 42.2-34.55 47.85-34.55Z" opacity="1" transform="matrix(1,0,0,1,0,0)" fill="black" class="wordmark-text-0" id="SvgjsPath6208"></path></svg></g></svg></g><g transform="matrix(1,0,0,1,0,166.7500355368421)"><svg viewBox="0 0 192 41.83818770226538" height="41.83818770226538" width="192"><g transform="matrix(1,0,0,1,0,0)"><svg width="192" viewBox="-0.1 -39.65 231.73 50.5" height="41.83818770226538" data-palette-color="url(#81ba3394-4255-4cd5-82cf-98ef077b236e)"><path d="M17.9-34.55L24.15-34.55 16.15 0 8.2 0-0.1-34.55 6.35-34.55 12.25-5.6 17.9-34.55ZM26.9-26.45L33.05-26.45 33.05 0 26.9 0 26.9-26.45ZM29.95-39.65Q31.6-39.65 32.62-38.6 33.65-37.55 33.65-35.9L33.65-35.9Q33.65-34.3 32.62-33.25 31.6-32.2 29.95-32.2L29.95-32.2Q28.3-32.2 27.27-33.25 26.25-34.3 26.25-35.9L26.25-35.9Q26.25-37.55 27.27-38.6 28.3-39.65 29.95-39.65L29.95-39.65ZM56.7-29.85L58.25-25.1Q57.2-24.6 55.72-24.4 54.25-24.2 52.05-24.2L52.05-24.2Q54.15-23.2 55.17-21.53 56.2-19.85 56.2-17.4L56.2-17.4Q56.2-13.4 53.75-10.95 51.3-8.5 47.1-8.5L47.1-8.5Q45.85-8.5 44.55-8.9L44.55-8.9Q43.65-8.15 43.65-6.85L43.65-6.85Q43.65-5.85 44.2-5.35 44.75-4.85 46.25-4.85L46.25-4.85 49.05-4.85Q53.05-4.85 55.4-2.78 57.75-0.7 57.75 2.5L57.75 2.5Q57.75 6.3 54.82 8.58 51.9 10.85 46.5 10.85L46.5 10.85Q40.8 10.85 38.52 8.75 36.25 6.65 36.25 2.6L36.25 2.6 41.7 2.6Q41.7 4.75 42.7 5.65 43.7 6.55 46.55 6.55L46.55 6.55Q49.3 6.55 50.45 5.6 51.6 4.65 51.6 2.9L51.6 2.9Q51.6 1.2 50.65 0.4 49.7-0.4 47.7-0.4L47.7-0.4 45.8-0.4Q42-0.4 40.25-1.75 38.5-3.1 38.5-5.45L38.5-5.45Q38.5-6.8 39.22-8.03 39.95-9.25 41.2-10.2L41.2-10.2Q39.15-11.5 38.2-13.3 37.25-15.1 37.25-17.7L37.25-17.7Q37.25-22.05 39.85-24.58 42.45-27.1 46.85-27.1L46.85-27.1Q50.1-27.1 52.22-27.8 54.34-28.5 56.7-29.85L56.7-29.85ZM46.85-23Q45.1-23 44.2-21.75 43.3-20.5 43.3-17.8L43.3-17.8Q43.3-15.25 44.2-13.88 45.1-12.5 46.8-12.5L46.8-12.5Q48.55-12.5 49.4-13.73 50.25-14.95 50.25-17.85L50.25-17.85Q50.25-20.55 49.42-21.78 48.6-23 46.85-23L46.85-23ZM73.34-27.15Q76.19-27.15 77.84-25.1 79.49-23.05 79.49-19.6L79.49-19.6 79.49 0 73.34 0 73.34-18.9Q73.34-20.8 72.82-21.63 72.29-22.45 71.29-22.45L71.29-22.45Q69.19-22.45 67.14-18.5L67.14-18.5 67.14 0 60.99 0 60.99-26.45 66.34-26.45 66.79-23Q68.14-25.1 69.67-26.13 71.19-27.15 73.34-27.15L73.34-27.15ZM103.89-13.85Q103.89-13.4 103.74-11.3L103.74-11.3 90.09-11.3Q90.29-7.2 91.52-5.58 92.74-3.95 94.99-3.95L94.99-3.95Q96.54-3.95 97.79-4.48 99.04-5 100.49-6.15L100.49-6.15 103.04-2.65Q99.54 0.75 94.64 0.75L94.64 0.75Q89.44 0.75 86.67-2.85 83.89-6.45 83.89-13L83.89-13Q83.89-19.55 86.54-23.35 89.19-27.15 94.04-27.15L94.04-27.15Q98.69-27.15 101.29-23.78 103.89-20.4 103.89-13.85L103.89-13.85ZM97.89-15.3L97.89-15.65Q97.89-19.4 96.99-21.13 96.09-22.85 94.09-22.85L94.09-22.85Q92.24-22.85 91.27-21.18 90.29-19.5 90.09-15.3L90.09-15.3 97.89-15.3ZM108.19-26.45L114.34-26.45 114.34 0 108.19 0 108.19-26.45ZM111.24-39.65Q112.89-39.65 113.91-38.6 114.94-37.55 114.94-35.9L114.94-35.9Q114.94-34.3 113.91-33.25 112.89-32.2 111.24-32.2L111.24-32.2Q109.59-32.2 108.56-33.25 107.54-34.3 107.54-35.9L107.54-35.9Q107.54-37.55 108.56-38.6 109.59-39.65 111.24-39.65L111.24-39.65ZM127.39-27.15Q132.09-27.15 135.34-24.05L135.34-24.05 132.99-20.7Q131.59-21.7 130.34-22.2 129.09-22.7 127.79-22.7L127.79-22.7Q126.34-22.7 125.51-21.93 124.69-21.15 124.69-19.8L124.69-19.8Q124.69-18.45 125.61-17.63 126.54-16.8 129.34-15.7L129.34-15.7Q132.79-14.35 134.44-12.5 136.09-10.65 136.09-7.55L136.09-7.55Q136.09-3.7 133.39-1.48 130.69 0.75 126.54 0.75L126.54 0.75Q123.84 0.75 121.56-0.23 119.29-1.2 117.59-2.95L117.59-2.95 120.59-6.25Q123.39-3.8 126.29-3.8L126.29-3.8Q127.94-3.8 128.89-4.67 129.84-5.55 129.84-7.1L129.84-7.1Q129.84-8.25 129.44-8.97 129.04-9.7 128.04-10.33 127.04-10.95 125.04-11.7L125.04-11.7Q121.59-13.05 120.11-14.85 118.64-16.65 118.64-19.45L118.64-19.45Q118.64-22.8 121.01-24.98 123.39-27.15 127.39-27.15L127.39-27.15ZM152.28-27.15Q155.13-27.15 156.78-25.1 158.43-23.05 158.43-19.6L158.43-19.6 158.43 0 152.28 0 152.28-18.9Q152.28-20.8 151.76-21.63 151.23-22.45 150.23-22.45L150.23-22.45Q148.13-22.45 146.08-18.5L146.08-18.5 146.08 0 139.93 0 139.93-37 146.08-37.65 146.08-23.3Q147.33-25.25 148.81-26.2 150.28-27.15 152.28-27.15L152.28-27.15ZM186.03-26.45L191.73-26.45 187.18 0 179.68 0 176.73-20.85 173.83 0 166.38 0 161.73-26.45 167.68-26.45 170.38-4.6 173.73-26.45 179.98-26.45 183.18-4.6 186.03-26.45ZM212.13-6.4Q212.13-5.1 212.48-4.48 212.83-3.85 213.63-3.45L213.63-3.45 212.38 0.65Q210.33 0.4 209.1-0.45 207.88-1.3 207.28-3.05L207.28-3.05Q204.98 0.75 200.83 0.75L200.83 0.75Q197.53 0.75 195.58-1.48 193.63-3.7 193.63-7.4L193.63-7.4Q193.63-11.7 196.3-13.95 198.98-16.2 204.08-16.2L204.08-16.2 206.13-16.2 206.13-18.05Q206.13-20.55 205.25-21.58 204.38-22.6 202.43-22.6L202.43-22.6Q200.08-22.6 196.58-21.3L196.58-21.3 195.18-25.3Q197.18-26.2 199.33-26.68 201.48-27.15 203.43-27.15L203.43-27.15Q212.13-27.15 212.13-18.35L212.13-18.35 212.13-6.4ZM202.48-3.7Q204.88-3.7 206.13-7L206.13-7 206.13-12.55 204.68-12.55Q202.13-12.55 200.95-11.4 199.78-10.25 199.78-7.85L199.78-7.85Q199.78-5.8 200.48-4.75 201.18-3.7 202.48-3.7L202.48-3.7ZM229.58-27.1Q230.73-27.1 231.63-26.75L231.63-26.75 230.63-20.85Q229.63-21.1 228.78-21.1L228.78-21.1Q226.88-21.1 225.78-19.45 224.68-17.8 224.08-14.55L224.08-14.55 224.08 0 217.93 0 217.93-26.45 223.28-26.45 223.73-21.85Q225.58-27.1 229.58-27.1L229.58-27.1Z" opacity="1" transform="matrix(1,0,0,1,0,0)" fill="black" class="slogan-text-1" id="SvgjsPath6207"></path></svg></g></svg></g></svg></g></svg></g><g></g></svg></g></svg></g></svg></g><defs><mask></mask></defs></svg><rect width="320" height="360" fill="black" stroke="none" visibility="hidden"></rect></g></mask></svg><rect width="320" height="360" fill="black" stroke="none" visibility="hidden"></rect></g></mask></svg><rect width="320" height="360" fill="black" stroke="none" visibility="hidden"></rect></g></mask><linearGradient x1="0" x2="1" y1="0.578" y2="0.595" id="1397477a-e42d-46c6-9690-c7623757afda"><stop stop-color="#6ee2f5" offset="0"></stop><stop stop-color="#6454f0" offset="1"></stop></linearGradient></svg><rect width="320" height="360" fill="none" stroke="none" visibility="hidden"></rect></g></svg></g></svg>